<svg version="1.1" xmlns="http://www.w3.org/2000/svg" xmlns:xlink="http://www.w3.org/1999/xlink" width="1225" height="498"><defs/><g><g transform="translate(-25,-11) scale(1,1)"><rect fill="#C0C0C0" stroke="none" x="70" y="287" width="208.638671875" height="135" opacity="0.2"/></g><g transform="translate(-25,-11) scale(1,1)"><rect fill="#ffffff" stroke="none" x="63" y="280" width="208.638671875" height="135"/></g><g transform="translate(-25,-11) scale(1,1)"><path fill="none" stroke="#000000" d="M 63 280 L 271.638671875 280 L 271.638671875 415 L 63 415 L 63 280 Z Z" stroke-miterlimit="10"/></g><g transform="translate(-25,-11) scale(1,1)"><path fill="none" stroke="#000000" d="M 63 303 L 271.638671875 303" stroke-miterlimit="10"/></g><g transform="translate(-25,-11) scale(1,1)"><path fill="none" stroke="#000000" d="M 91.05908203125 303 L 91.05908203125 415" stroke-miterlimit="10"/></g><g transform="translate(-25,-11) scale(1,1)"><path fill="none" stroke="#000000" d="M 168.25537109375 303 L 168.25537109375 415" stroke-miterlimit="10"/></g><g transform="translate(-25,-11) scale(1,1)"><g><path fill="none" stroke="none"/><text fill="#000000" stroke="none" font-family="Arial" font-size="13px" font-style="normal" font-weight="bold" text-decoration="none" x="150.342529296875" y="295.5">client</text></g></g><g transform="translate(-25,-11) scale(1,1)"><g><path fill="none" stroke="none"/><text fill="#000000" stroke="none" font-family="Arial" font-size="13px" font-style="normal" font-weight="normal" text-decoration="none" x="68" y="317">PK</text></g></g><g transform="translate(-25,-11) scale(1,1)"><g><path fill="none" stroke="none"/><text fill="#000000" stroke="none" font-family="Arial" font-size="13px" font-style="normal" font-weight="normal" text-decoration="none" x="96.05908203125" y="317">id</text></g></g><g transform="translate(-25,-11) scale(1,1)"><g><path fill="none" stroke="none"/><text fill="#000000" stroke="none" font-family="Arial" font-size="13px" font-style="normal" font-weight="normal" text-decoration="none" x="173.25537109375" y="317">VARCHAR(32)</text></g></g><g transform="translate(-25,-11) scale(1,1)"><g><path fill="none" stroke="none"/><text fill="#000000" stroke="none" font-family="Arial" font-size="13px" font-style="normal" font-weight="normal" text-decoration="none" x="68" y="314"></text></g></g><g transform="translate(-25,-11) scale(1,1)"><g><path fill="none" stroke="none"/><text fill="#000000" stroke="none" font-family="Arial" font-size="13px" font-style="normal" font-weight="normal" text-decoration="none" x="68" y="323"></text></g></g><g transform="translate(-25,-11) scale(1,1)"><g><path fill="none" stroke="none"/><text fill="#000000" stroke="none" font-family="Arial" font-size="13px" font-style="normal" font-weight="normal" text-decoration="none" x="96.05908203125" y="332">fullname</text></g></g><g transform="translate(-25,-11) scale(1,1)"><g><path fill="none" stroke="none"/><text fill="#000000" stroke="none" font-family="Arial" font-size="13px" font-style="normal" font-weight="normal" text-decoration="none" x="173.25537109375" y="332">VARCHAR(255)</text></g></g><g transform="translate(-25,-11) scale(1,1)"><g><path fill="none" stroke="none"/><text fill="#000000" stroke="none" font-family="Arial" font-size="13px" font-style="normal" font-weight="normal" text-decoration="none" x="68" y="329"></text></g></g><g transform="translate(-25,-11) scale(1,1)"><g><path fill="none" stroke="none"/><text fill="#000000" stroke="none" font-family="Arial" font-size="13px" font-style="normal" font-weight="normal" text-decoration="none" x="68" y="347">U</text></g></g><g transform="translate(-25,-11) scale(1,1)"><g><path fill="none" stroke="none"/><text fill="#000000" stroke="none" font-family="Arial" font-size="13px" font-style="normal" font-weight="normal" text-decoration="none" x="96.05908203125" y="346">username</text></g></g><g transform="translate(-25,-11) scale(1,1)"><g><path fill="none" stroke="none"/><text fill="#000000" stroke="none" font-family="Arial" font-size="13px" font-style="normal" font-weight="normal" text-decoration="none" x="173.25537109375" y="347">VARCHAR(45)</text></g></g><g transform="translate(-25,-11) scale(1,1)"><g><path fill="none" stroke="none"/><text fill="#000000" stroke="none" font-family="Arial" font-size="13px" font-style="normal" font-weight="normal" text-decoration="none" x="68" y="344"></text></g></g><g transform="translate(-25,-11) scale(1,1)"><g><path fill="none" stroke="none"/><text fill="#000000" stroke="none" font-family="Arial" font-size="13px" font-style="normal" font-weight="normal" text-decoration="none" x="68" y="353"></text></g></g><g transform="translate(-25,-11) scale(1,1)"><g><path fill="none" stroke="none"/><text fill="#000000" stroke="none" font-family="Arial" font-size="13px" font-style="normal" font-weight="normal" text-decoration="none" x="96.05908203125" y="362">password</text></g></g><g transform="translate(-25,-11) scale(1,1)"><g><path fill="none" stroke="none"/><text fill="#000000" stroke="none" font-family="Arial" font-size="13px" font-style="normal" font-weight="normal" text-decoration="none" x="173.25537109375" y="362">VARCHAR(255)</text></g></g><g transform="translate(-25,-11) scale(1,1)"><g><path fill="none" stroke="none"/><text fill="#000000" stroke="none" font-family="Arial" font-size="13px" font-style="normal" font-weight="normal" text-decoration="none" x="68" y="359"></text></g></g><g transform="translate(-25,-11) scale(1,1)"><g><path fill="none" stroke="none"/><text fill="#000000" stroke="none" font-family="Arial" font-size="13px" font-style="normal" font-weight="normal" text-decoration="none" x="68" y="368"></text></g></g><g transform="translate(-25,-11) scale(1,1)"><g><path fill="none" stroke="none"/><text fill="#000000" stroke="none" font-family="Arial" font-size="13px" font-style="normal" font-weight="normal" text-decoration="none" x="96.05908203125" y="377">is_editable</text></g></g><g transform="translate(-25,-11) scale(1,1)"><g><path fill="none" stroke="none"/><text fill="#000000" stroke="none" font-family="Arial" font-size="13px" font-style="normal" font-weight="normal" text-decoration="none" x="173.25537109375" y="377">BOOLEAN</text></g></g><g transform="translate(-25,-11) scale(1,1)"><g><path fill="none" stroke="none"/><text fill="#000000" stroke="none" font-family="Arial" font-size="13px" font-style="normal" font-weight="normal" text-decoration="none" x="68" y="374"></text></g></g><g transform="translate(-25,-11) scale(1,1)"><g><path fill="none" stroke="none"/><text fill="#000000" stroke="none" font-family="Arial" font-size="13px" font-style="normal" font-weight="normal" text-decoration="none" x="68" y="392">N</text></g></g><g transform="translate(-25,-11) scale(1,1)"><g><path fill="none" stroke="none"/><text fill="#000000" stroke="none" font-family="Arial" font-size="13px" font-style="normal" font-weight="normal" text-decoration="none" x="96.05908203125" y="392">oapen_id</text></g></g><g transform="translate(-25,-11) scale(1,1)"><g><path fill="none" stroke="none"/><text fill="#000000" stroke="none" font-family="Arial" font-size="13px" font-style="normal" font-weight="normal" text-decoration="none" x="173.25537109375" y="392">VARCHAR(255)</text></g></g><g transform="translate(-25,-11) scale(1,1)"><g><path fill="none" stroke="none"/><text fill="#000000" stroke="none" font-family="Arial" font-size="13px" font-style="normal" font-weight="normal" text-decoration="none" x="68" y="389"></text></g></g><g transform="translate(-25,-11) scale(1,1)"><g><path fill="none" stroke="none"/><text fill="#000000" stroke="none" font-family="Arial" font-size="13px" font-style="normal" font-weight="normal" text-decoration="none" x="68" y="407">N</text></g></g><g transform="translate(-25,-11) scale(1,1)"><g><path fill="none" stroke="none"/><text fill="#000000" stroke="none" font-family="Arial" font-size="13px" font-style="normal" font-weight="normal" text-decoration="none" x="96.05908203125" y="407">notes</text></g></g><g transform="translate(-25,-11) scale(1,1)"><g><path fill="none" stroke="none"/><text fill="#000000" stroke="none" font-family="Arial" font-size="13px" font-style="normal" font-weight="normal" text-decoration="none" x="173.25537109375" y="407">TEXT</text></g></g><g transform="translate(-25,-11) scale(1,1)"><g><path fill="none" stroke="none"/><text fill="#000000" stroke="none" font-family="Arial" font-size="13px" font-style="normal" font-weight="normal" text-decoration="none" x="68" y="404"></text></g></g><g transform="translate(-25,-11) scale(1,1)"><rect fill="#C0C0C0" stroke="none" x="1047" y="309" width="200" height="110" opacity="0.2"/></g><g transform="translate(-25,-11) scale(1,1)"><rect fill="#ffffff" stroke="none" x="1040" y="302" width="200" height="110"/></g><g transform="translate(-25,-11) scale(1,1)"><path fill="none" stroke="#000000" d="M 1040 302 L 1240 302 L 1240 412 L 1040 412 L 1040 302 Z Z" stroke-miterlimit="10"/></g><g transform="translate(-25,-11) scale(1,1)"><path fill="none" stroke="#000000" d="M 1040 325 L 1240 325" stroke-miterlimit="10"/></g><g transform="translate(-25,-11) scale(1,1)"><path fill="none" stroke="#000000" d="M 1068.05908203125 325 L 1068.05908203125 412" stroke-miterlimit="10"/></g><g transform="translate(-25,-11) scale(1,1)"><path fill="none" stroke="#000000" d="M 1132.24267578125 325 L 1132.24267578125 412" stroke-miterlimit="10"/></g><g transform="translate(-25,-11) scale(1,1)"><g><path fill="none" stroke="none"/><text fill="#000000" stroke="none" font-family="Arial" font-size="13px" font-style="normal" font-weight="bold" text-decoration="none" x="1122.299560546875" y="317">query</text></g></g><g transform="translate(-25,-11) scale(1,1)"><g><path fill="none" stroke="none"/><text fill="#000000" stroke="none" font-family="Arial" font-size="13px" font-style="normal" font-weight="normal" text-decoration="none" x="1045" y="339">PK</text></g></g><g transform="translate(-25,-11) scale(1,1)"><g><path fill="none" stroke="none"/><text fill="#000000" stroke="none" font-family="Arial" font-size="13px" font-style="normal" font-weight="normal" text-decoration="none" x="1073.05908203125" y="339">id</text></g></g><g transform="translate(-25,-11) scale(1,1)"><g><path fill="none" stroke="none"/><text fill="#000000" stroke="none" font-family="Arial" font-size="13px" font-style="normal" font-weight="normal" text-decoration="none" x="1137.24267578125" y="339">VARCHAR(32)</text></g></g><g transform="translate(-25,-11) scale(1,1)"><g><path fill="none" stroke="none"/><text fill="#000000" stroke="none" font-family="Arial" font-size="13px" font-style="normal" font-weight="normal" text-decoration="none" x="1045" y="336"></text></g></g><g transform="translate(-25,-11) scale(1,1)"><g><path fill="none" stroke="none"/><text fill="#000000" stroke="none" font-family="Arial" font-size="13px" font-style="normal" font-weight="normal" text-decoration="none" x="1045" y="345"></text></g></g><g transform="translate(-25,-11) scale(1,1)"><g><path fill="none" stroke="none"/><text fill="#000000" stroke="none" font-family="Arial" font-size="13px" font-style="normal" font-weight="normal" text-decoration="none" x="1073.05908203125" y="352">name</text></g></g><g transform="translate(-25,-11) scale(1,1)"><g><path fill="none" stroke="none"/><text fill="#000000" stroke="none" font-family="Arial" font-size="13px" font-style="normal" font-weight="normal" text-decoration="none" x="1137.24267578125" y="354">VARCHAR(255)</text></g></g><g transform="translate(-25,-11) scale(1,1)"><g><path fill="none" stroke="none"/><text fill="#000000" stroke="none" font-family="Arial" font-size="13px" font-style="normal" font-weight="normal" text-decoration="none" x="1045" y="351"></text></g></g><g transform="translate(-25,-11) scale(1,1)"><g><path fill="none" stroke="none"/><text fill="#000000" stroke="none" font-family="Arial" font-size="13px" font-style="normal" font-weight="normal" text-decoration="none" x="1045" y="360"></text></g></g><g transform="translate(-25,-11) scale(1,1)"><g><path fill="none" stroke="none"/><text fill="#000000" stroke="none" font-family="Arial" font-size="13px" font-style="normal" font-weight="normal" text-decoration="none" x="1073.05908203125" y="369">body</text></g></g><g transform="translate(-25,-11) scale(1,1)"><g><path fill="none" stroke="none"/><text fill="#000000" stroke="none" font-family="Arial" font-size="13px" font-style="normal" font-weight="normal" text-decoration="none" x="1137.24267578125" y="369">TEXT</text></g></g><g transform="translate(-25,-11) scale(1,1)"><g><path fill="none" stroke="none"/><text fill="#000000" stroke="none" font-family="Arial" font-size="13px" font-style="normal" font-weight="normal" text-decoration="none" x="1045" y="366"></text></g></g><g transform="translate(-25,-11) scale(1,1)"><g><path fill="none" stroke="none"/><text fill="#000000" stroke="none" font-family="Arial" font-size="13px" font-style="normal" font-weight="normal" text-decoration="none" x="1045" y="384">N</text></g></g><g transform="translate(-25,-11) scale(1,1)"><g><path fill="none" stroke="none"/><text fill="#000000" stroke="none" font-family="Arial" font-size="13px" font-style="normal" font-weight="normal" text-decoration="none" x="1073.05908203125" y="383">params</text></g></g><g transform="translate(-25,-11) scale(1,1)"><g><path fill="none" stroke="none"/><text fill="#000000" stroke="none" font-family="Arial" font-size="13px" font-style="normal" font-weight="normal" text-decoration="none" x="1137.24267578125" y="384">TEXT</text></g></g><g transform="translate(-25,-11) scale(1,1)"><g><path fill="none" stroke="none"/><text fill="#000000" stroke="none" font-family="Arial" font-size="13px" font-style="normal" font-weight="normal" text-decoration="none" x="1045" y="381"></text></g></g><g transform="translate(-25,-11) scale(1,1)"><g><path fill="none" stroke="none"/><text fill="#000000" stroke="none" font-family="Arial" font-size="13px" font-style="normal" font-weight="normal" text-decoration="none" x="1045" y="399">FK</text></g></g><g transform="translate(-25,-11) scale(1,1)"><g><path fill="none" stroke="none"/><text fill="#000000" stroke="none" font-family="Arial" font-size="13px" font-style="normal" font-weight="normal" text-decoration="none" x="1073.05908203125" y="399">id_script</text></g></g><g transform="translate(-25,-11) scale(1,1)"><g><path fill="none" stroke="none"/><text fill="#000000" stroke="none" font-family="Arial" font-size="13px" font-style="normal" font-weight="normal" text-decoration="none" x="1137.24267578125" y="399">VARCHAR(32)</text></g></g><g transform="translate(-25,-11) scale(1,1)"><g><path fill="none" stroke="none"/><text fill="#000000" stroke="none" font-family="Arial" font-size="13px" font-style="normal" font-weight="normal" text-decoration="none" x="1045" y="396"></text></g></g><g transform="translate(-25,-11) scale(1,1)"><rect fill="#C0C0C0" stroke="none" x="720" y="306" width="230.6142578125" height="120" opacity="0.2"/></g><g transform="translate(-25,-11) scale(1,1)"><rect fill="#ffffff" stroke="none" x="713" y="299" width="230.6142578125" height="120"/></g><g transform="translate(-25,-11) scale(1,1)"><path fill="none" stroke="#000000" d="M 713 299 L 943.6142578125 299 L 943.6142578125 419 L 713 419 L 713 299 Z Z" stroke-miterlimit="10"/></g><g transform="translate(-25,-11) scale(1,1)"><path fill="none" stroke="#000000" d="M 713 322 L 943.6142578125 322" stroke-miterlimit="10"/></g><g transform="translate(-25,-11) scale(1,1)"><path fill="none" stroke="#000000" d="M 762 322 L 762 419" stroke-miterlimit="10"/></g><g transform="translate(-25,-11) scale(1,1)"><path fill="none" stroke="#000000" d="M 818.2490234375 322 L 818.2490234375 419" stroke-miterlimit="10"/></g><g transform="translate(-25,-11) scale(1,1)"><g><path fill="none" stroke="none"/><text fill="#000000" stroke="none" font-family="Arial" font-size="13px" font-style="normal" font-weight="bold" text-decoration="none" x="810.606689453125" y="314.5">script</text></g></g><g transform="translate(-25,-11) scale(1,1)"><g><path fill="none" stroke="none"/><text fill="#000000" stroke="none" font-family="Arial" font-size="13px" font-style="normal" font-weight="normal" text-decoration="none" x="718" y="336">PK,FK</text></g></g><g transform="translate(-25,-11) scale(1,1)"><g><path fill="none" stroke="none"/><text fill="#000000" stroke="none" font-family="Arial" font-size="13px" font-style="normal" font-weight="normal" text-decoration="none" x="767" y="336">id_task</text></g></g><g transform="translate(-25,-11) scale(1,1)"><g><path fill="none" stroke="none"/><text fill="#000000" stroke="none" font-family="Arial" font-size="13px" font-style="normal" font-weight="normal" text-decoration="none" x="823.2490234375" y="336">VARCHAR(32)</text></g></g><g transform="translate(-25,-11) scale(1,1)"><g><path fill="none" stroke="none"/><text fill="#000000" stroke="none" font-family="Arial" font-size="13px" font-style="normal" font-weight="normal" text-decoration="none" x="718" y="333"></text></g></g><g transform="translate(-25,-11) scale(1,1)"><g><path fill="none" stroke="none"/><text fill="#000000" stroke="none" font-family="Arial" font-size="13px" font-style="normal" font-weight="normal" text-decoration="none" x="718" y="342"></text></g></g><g transform="translate(-25,-11) scale(1,1)"><g><path fill="none" stroke="none"/><text fill="#000000" stroke="none" font-family="Arial" font-size="13px" font-style="normal" font-weight="normal" text-decoration="none" x="767" y="349">name</text></g></g><g transform="translate(-25,-11) scale(1,1)"><g><path fill="none" stroke="none"/><text fill="#000000" stroke="none" font-family="Arial" font-size="13px" font-style="normal" font-weight="normal" text-decoration="none" x="823.2490234375" y="351">VARCHAR(255)</text></g></g><g transform="translate(-25,-11) scale(1,1)"><g><path fill="none" stroke="none"/><text fill="#000000" stroke="none" font-family="Arial" font-size="13px" font-style="normal" font-weight="normal" text-decoration="none" x="718" y="348"></text></g></g><g transform="translate(-25,-11) scale(1,1)"><g><path fill="none" stroke="none"/><text fill="#000000" stroke="none" font-family="Arial" font-size="13px" font-style="normal" font-weight="normal" text-decoration="none" x="718" y="357"></text></g></g><g transform="translate(-25,-11) scale(1,1)"><g><path fill="none" stroke="none"/><text fill="#000000" stroke="none" font-family="Arial" font-size="13px" font-style="normal" font-weight="normal" text-decoration="none" x="767" y="366">type</text></g></g><g transform="translate(-25,-11) scale(1,1)"><g><path fill="none" stroke="none"/><text fill="#000000" stroke="none" font-family="Arial" font-size="13px" font-style="normal" font-weight="normal" text-decoration="none" x="823.2490234375" y="366">ENUM('main','sub')</text></g></g><g transform="translate(-25,-11) scale(1,1)"><g><path fill="none" stroke="none"/><text fill="#000000" stroke="none" font-family="Arial" font-size="13px" font-style="normal" font-weight="normal" text-decoration="none" x="718" y="363"></text></g></g><g transform="translate(-25,-11) scale(1,1)"><g><path fill="none" stroke="none"/><text fill="#000000" stroke="none" font-family="Arial" font-size="13px" font-style="normal" font-weight="normal" text-decoration="none" x="718" y="372"></text></g></g><g transform="translate(-25,-11) scale(1,1)"><g><path fill="none" stroke="none"/><text fill="#000000" stroke="none" font-family="Arial" font-size="13px" font-style="normal" font-weight="normal" text-decoration="none" x="767" y="381">body</text></g></g><g transform="translate(-25,-11) scale(1,1)"><g><path fill="none" stroke="none"/><text fill="#000000" stroke="none" font-family="Arial" font-size="13px" font-style="normal" font-weight="normal" text-decoration="none" x="823.2490234375" y="381">TEXT</text></g></g><g transform="translate(-25,-11) scale(1,1)"><g><path fill="none" stroke="none"/><text fill="#000000" stroke="none" font-family="Arial" font-size="13px" font-style="normal" font-weight="normal" text-decoration="none" x="718" y="378"></text></g></g><g transform="translate(-25,-11) scale(1,1)"><g><path fill="none" stroke="none"/><text fill="#000000" stroke="none" font-family="Arial" font-size="13px" font-style="normal" font-weight="normal" text-decoration="none" x="718" y="396">N</text></g></g><g transform="translate(-25,-11) scale(1,1)"><g><path fill="none" stroke="none"/><text fill="#000000" stroke="none" font-family="Arial" font-size="13px" font-style="normal" font-weight="normal" text-decoration="none" x="767" y="395">params</text></g></g><g transform="translate(-25,-11) scale(1,1)"><g><path fill="none" stroke="none"/><text fill="#000000" stroke="none" font-family="Arial" font-size="13px" font-style="normal" font-weight="normal" text-decoration="none" x="823.2490234375" y="396">TEXT</text></g></g><g transform="translate(-25,-11) scale(1,1)"><g><path fill="none" stroke="none"/><text fill="#000000" stroke="none" font-family="Arial" font-size="13px" font-style="normal" font-weight="normal" text-decoration="none" x="718" y="393"></text></g></g><g transform="translate(-25,-11) scale(1,1)"><rect fill="#C0C0C0" stroke="none" x="385" y="246" width="234.435546875" height="260" opacity="0.2"/></g><g transform="translate(-25,-11) scale(1,1)"><rect fill="#ffffff" stroke="none" x="378" y="239" width="234.435546875" height="260"/></g><g transform="translate(-25,-11) scale(1,1)"><path fill="none" stroke="#000000" d="M 378 239 L 612.435546875 239 L 612.435546875 499 L 378 499 L 378 239 Z Z" stroke-miterlimit="10"/></g><g transform="translate(-25,-11) scale(1,1)"><path fill="none" stroke="#000000" d="M 378 262 L 612.435546875 262" stroke-miterlimit="10"/></g><g transform="translate(-25,-11) scale(1,1)"><path fill="none" stroke="#000000" d="M 406.05908203125 262 L 406.05908203125 499" stroke-miterlimit="10"/></g><g transform="translate(-25,-11) scale(1,1)"><path fill="none" stroke="#000000" d="M 478.1962890625 262 L 478.1962890625 499" stroke-miterlimit="10"/></g><g transform="translate(-25,-11) scale(1,1)"><g><path fill="none" stroke="none"/><text fill="#000000" stroke="none" font-family="Arial" font-size="13px" font-style="normal" font-weight="bold" text-decoration="none" x="482.208251953125" y="254.5">task</text></g></g><g transform="translate(-25,-11) scale(1,1)"><g><path fill="none" stroke="none"/><text fill="#000000" stroke="none" font-family="Arial" font-size="13px" font-style="normal" font-weight="normal" text-decoration="none" x="383" y="276">PK</text></g></g><g transform="translate(-25,-11) scale(1,1)"><g><path fill="none" stroke="none"/><text fill="#000000" stroke="none" font-family="Arial" font-size="13px" font-style="normal" font-weight="normal" text-decoration="none" x="411.05908203125" y="276">id</text></g></g><g transform="translate(-25,-11) scale(1,1)"><g><path fill="none" stroke="none"/><text fill="#000000" stroke="none" font-family="Arial" font-size="13px" font-style="normal" font-weight="normal" text-decoration="none" x="483.1962890625" y="276">VARCHAR(32)</text></g></g><g transform="translate(-25,-11) scale(1,1)"><g><path fill="none" stroke="none"/><text fill="#000000" stroke="none" font-family="Arial" font-size="13px" font-style="normal" font-weight="normal" text-decoration="none" x="383" y="273"></text></g></g><g transform="translate(-25,-11) scale(1,1)"><g><path fill="none" stroke="none"/><text fill="#000000" stroke="none" font-family="Arial" font-size="13px" font-style="normal" font-weight="normal" text-decoration="none" x="383" y="282"></text></g></g><g transform="translate(-25,-11) scale(1,1)"><g><path fill="none" stroke="none"/><text fill="#000000" stroke="none" font-family="Arial" font-size="13px" font-style="normal" font-weight="normal" text-decoration="none" x="411.05908203125" y="289">name</text></g></g><g transform="translate(-25,-11) scale(1,1)"><g><path fill="none" stroke="none"/><text fill="#000000" stroke="none" font-family="Arial" font-size="13px" font-style="normal" font-weight="normal" text-decoration="none" x="483.1962890625" y="291">VARCHAR(100)</text></g></g><g transform="translate(-25,-11) scale(1,1)"><g><path fill="none" stroke="none"/><text fill="#000000" stroke="none" font-family="Arial" font-size="13px" font-style="normal" font-weight="normal" text-decoration="none" x="383" y="288"></text></g></g><g transform="translate(-25,-11) scale(1,1)"><g><path fill="none" stroke="none"/><text fill="#000000" stroke="none" font-family="Arial" font-size="13px" font-style="normal" font-weight="normal" text-decoration="none" x="383" y="297"></text></g></g><g transform="translate(-25,-11) scale(1,1)"><g><path fill="none" stroke="none"/><text fill="#000000" stroke="none" font-family="Arial" font-size="13px" font-style="normal" font-weight="normal" text-decoration="none" x="411.05908203125" y="306">start_date</text></g></g><g transform="translate(-25,-11) scale(1,1)"><g><path fill="none" stroke="none"/><text fill="#000000" stroke="none" font-family="Arial" font-size="13px" font-style="normal" font-weight="normal" text-decoration="none" x="483.1962890625" y="306">DATE</text></g></g><g transform="translate(-25,-11) scale(1,1)"><g><path fill="none" stroke="none"/><text fill="#000000" stroke="none" font-family="Arial" font-size="13px" font-style="normal" font-weight="normal" text-decoration="none" x="383" y="303"></text></g></g><g transform="translate(-25,-11) scale(1,1)"><g><path fill="none" stroke="none"/><text fill="#000000" stroke="none" font-family="Arial" font-size="13px" font-style="normal" font-weight="normal" text-decoration="none" x="383" y="312"></text></g></g><g transform="translate(-25,-11) scale(1,1)"><g><path fill="none" stroke="none"/><text fill="#000000" stroke="none" font-family="Arial" font-size="13px" font-style="normal" font-weight="normal" text-decoration="none" x="411.05908203125" y="321">frequency</text></g></g><g transform="translate(-25,-11) scale(1,1)"><g><path fill="none" stroke="none"/><text fill="#000000" stroke="none" font-family="Arial" font-size="13px" font-style="normal" font-weight="normal" text-decoration="none" x="483.1962890625" y="321">ENUM('D','W','M','Y')</text></g></g><g transform="translate(-25,-11) scale(1,1)"><g><path fill="none" stroke="none"/><text fill="#000000" stroke="none" font-family="Arial" font-size="13px" font-style="normal" font-weight="normal" text-decoration="none" x="383" y="318"></text></g></g><g transform="translate(-25,-11) scale(1,1)"><g><path fill="none" stroke="none"/><text fill="#000000" stroke="none" font-family="Arial" font-size="13px" font-style="normal" font-weight="normal" text-decoration="none" x="383" y="336">FK</text></g></g><g transform="translate(-25,-11) scale(1,1)"><g><path fill="none" stroke="none"/><text fill="#000000" stroke="none" font-family="Arial" font-size="13px" font-style="normal" font-weight="normal" text-decoration="none" x="411.05908203125" y="336">id_client</text></g></g><g transform="translate(-25,-11) scale(1,1)"><g><path fill="none" stroke="none"/><text fill="#000000" stroke="none" font-family="Arial" font-size="13px" font-style="normal" font-weight="normal" text-decoration="none" x="483.1962890625" y="336">VARCHAR(32)</text></g></g><g transform="translate(-25,-11) scale(1,1)"><g><path fill="none" stroke="none"/><text fill="#000000" stroke="none" font-family="Arial" font-size="13px" font-style="normal" font-weight="normal" text-decoration="none" x="383" y="333"></text></g></g><g transform="translate(-25,-11) scale(1,1)"><g><path fill="none" stroke="none"/><text fill="#000000" stroke="none" font-family="Arial" font-size="13px" font-style="normal" font-weight="normal" text-decoration="none" x="383" y="342"></text></g></g><g transform="translate(-25,-11) scale(1,1)"><g><path fill="none" stroke="none"/><text fill="#000000" stroke="none" font-family="Arial" font-size="13px" font-style="normal" font-weight="normal" text-decoration="none" x="411.05908203125" y="351">is_active</text></g></g><g transform="translate(-25,-11) scale(1,1)"><g><path fill="none" stroke="none"/><text fill="#000000" stroke="none" font-family="Arial" font-size="13px" font-style="normal" font-weight="normal" text-decoration="none" x="483.1962890625" y="351">BOOLEAN</text></g></g><g transform="translate(-25,-11) scale(1,1)"><g><path fill="none" stroke="none"/><text fill="#000000" stroke="none" font-family="Arial" font-size="13px" font-style="normal" font-weight="normal" text-decoration="none" x="383" y="348"></text></g></g><g transform="translate(-25,-11) scale(1,1)"><path fill="none" stroke="#000000" d="M 272 361 L 378 361" stroke-miterlimit="10"/></g><g transform="translate(-25,-11) scale(1,1)"><path fill="none" stroke="#000000" d="M 364 361 L 378 368" stroke-miterlimit="10"/></g><g transform="translate(-25,-11) scale(1,1)"><path fill="none" stroke="#000000" d="M 364 361 L 378 354" stroke-miterlimit="10"/></g><g transform="translate(-25,-11) scale(1,1)"><path fill="#FFFFFF" stroke="none" d="M 349 361 C 349 357.1340064 352.1340064 354 356 354 C 359.8659936 354 363 357.1340064 363 361 C 363 364.8659936 359.8659936 368 356 368 C 352.1340064 368 349 364.8659936 349 361 Z"/></g><g transform="translate(-25,-11) scale(1,1)"><path fill="none" stroke="#000000" d="M 349 361 C 349 357.1340064 352.1340064 354 356 354 C 359.8659936 354 363 357.1340064 363 361 C 363 364.8659936 359.8659936 368 356 368 C 352.1340064 368 349 364.8659936 349 361 Z" stroke-miterlimit="10"/></g><g transform="translate(-25,-11) scale(1,1)"><path fill="none" stroke="#000000" d="M 279 354 L 279 368" stroke-miterlimit="10"/></g><g transform="translate(-25,-11) scale(1,1)"><path fill="none" stroke="#000000" d="M 286 354 L 286 368" stroke-miterlimit="10"/></g><g transform="translate(-25,-11) scale(1,1)"><g><path fill="none" stroke="none"/><text fill="#000000" stroke="none" font-family="Arial" font-size="13px" font-style="normal" font-weight="normal" text-decoration="none" x="296.5" y="346"></text></g></g><g transform="translate(-25,-11) scale(1,1)"><g><path fill="none" stroke="none"/><text fill="#000000" stroke="none" font-family="Arial" font-size="13px" font-style="normal" font-weight="normal" text-decoration="none" x="351.5" y="346"></text></g></g><g transform="translate(-25,-11) scale(1,1)"><path fill="none" stroke="#000000" d="M 612 365 L 713 365" stroke-miterlimit="10"/></g><g transform="translate(-25,-11) scale(1,1)"><path fill="none" stroke="#000000" d="M 706 372 L 706 358" stroke-miterlimit="10"/></g><g transform="translate(-25,-11) scale(1,1)"><path fill="none" stroke="#000000" d="M 699 372 L 699 358" stroke-miterlimit="10"/></g><g transform="translate(-25,-11) scale(1,1)"><path fill="none" stroke="#000000" d="M 619 358 L 619 372" stroke-miterlimit="10"/></g><g transform="translate(-25,-11) scale(1,1)"><path fill="none" stroke="#000000" d="M 626 358 L 626 372" stroke-miterlimit="10"/></g><g transform="translate(-25,-11) scale(1,1)"><g><path fill="none" stroke="none"/><text fill="#000000" stroke="none" font-family="Arial" font-size="13px" font-style="normal" font-weight="normal" text-decoration="none" x="636.5" y="350"></text></g></g><g transform="translate(-25,-11) scale(1,1)"><g><path fill="none" stroke="none"/><text fill="#000000" stroke="none" font-family="Arial" font-size="13px" font-style="normal" font-weight="normal" text-decoration="none" x="686.5" y="350"></text></g></g><g transform="translate(-25,-11) scale(1,1)"><path fill="none" stroke="#000000" d="M 944 358 L 1040 358" stroke-miterlimit="10"/></g><g transform="translate(-25,-11) scale(1,1)"><path fill="none" stroke="#000000" d="M 1026 358 L 1040 365" stroke-miterlimit="10"/></g><g transform="translate(-25,-11) scale(1,1)"><path fill="none" stroke="#000000" d="M 1026 358 L 1040 351" stroke-miterlimit="10"/></g><g transform="translate(-25,-11) scale(1,1)"><path fill="#FFFFFF" stroke="none" d="M 1011 358 C 1011 354.1340064 1014.1340064 351 1018 351 C 1021.8659936 351 1025 354.1340064 1025 358 C 1025 361.8659936 1021.8659936 365 1018 365 C 1014.1340064 365 1011 361.8659936 1011 358 Z"/></g><g transform="translate(-25,-11) scale(1,1)"><path fill="none" stroke="#000000" d="M 1011 358 C 1011 354.1340064 1014.1340064 351 1018 351 C 1021.8659936 351 1025 354.1340064 1025 358 C 1025 361.8659936 1021.8659936 365 1018 365 C 1014.1340064 365 1011 361.8659936 1011 358 Z" stroke-miterlimit="10"/></g><g transform="translate(-25,-11) scale(1,1)"><path fill="none" stroke="#000000" d="M 951 351 L 951 365" stroke-miterlimit="10"/></g><g transform="translate(-25,-11) scale(1,1)"><path fill="none" stroke="#000000" d="M 958 351 L 958 365" stroke-miterlimit="10"/></g><g transform="translate(-25,-11) scale(1,1)"><g><path fill="none" stroke="none"/><text fill="#000000" stroke="none" font-family="Arial" font-size="13px" font-style="normal" font-weight="normal" text-decoration="none" x="968.5" y="343"></text></g></g><g transform="translate(-25,-11) scale(1,1)"><g><path fill="none" stroke="none"/><text fill="#000000" stroke="none" font-family="Arial" font-size="13px" font-style="normal" font-weight="normal" text-decoration="none" x="1013.5" y="343"></text></g></g><g transform="translate(-25,-11) scale(1,1)"><rect fill="#ffffff" stroke="none" x="35" y="21" width="659" height="54"/></g><g transform="translate(-25,-11) scale(1,1)"><path fill="none" stroke="#000000" d="M 35 21 L 694 21 L 694 75 L 35 75 L 35 21 Z Z" stroke-miterlimit="10"/></g><g transform="translate(-25,-11) scale(1,1)"><g><path fill="none" stroke="none"/><text fill="#000000" stroke="none" font-family="Arial" font-size="13px" font-style="normal" font-weight="normal" text-decoration="none" x="40" y="35">OAPEN MEMO Project - Manager database</text></g></g><g transform="translate(-25,-11) scale(1,1)"><g><path fill="none" stroke="none"/><text fill="#000000" stroke="none" font-family="Arial" font-size="13px" font-style="normal" font-weight="normal" text-decoration="none" x="40" y="50">Entity Relation Diagram</text></g></g><g transform="translate(-25,-11) scale(1,1)"><g><path fill="none" stroke="none"/><text fill="#000000" stroke="none" font-family="Arial" font-size="13px" font-style="normal" font-weight="normal" text-decoration="none" x="40" y="65">Version 230612-1</text></g></g></g></svg>