<svg version="1.1" xmlns="http://www.w3.org/2000/svg" xmlns:xlink="http://www.w3.org/1999/xlink" width="1225" height="673"><defs/><g><g transform="translate(-25,-11) scale(1,1)"><rect fill="#C0C0C0" stroke="none" x="70" y="304" width="208.638671875" height="135" opacity="0.2"/></g><g transform="translate(-25,-11) scale(1,1)"><rect fill="#ffffff" stroke="none" x="63" y="297" width="208.638671875" height="135"/></g><g transform="translate(-25,-11) scale(1,1)"><path fill="none" stroke="#000000" d="M 63 297 L 271.638671875 297 L 271.638671875 432 L 63 432 L 63 297 Z Z" stroke-miterlimit="10"/></g><g transform="translate(-25,-11) scale(1,1)"><path fill="none" stroke="#000000" d="M 63 320 L 271.638671875 320" stroke-miterlimit="10"/></g><g transform="translate(-25,-11) scale(1,1)"><path fill="none" stroke="#000000" d="M 91.05908203125 320 L 91.05908203125 432" stroke-miterlimit="10"/></g><g transform="translate(-25,-11) scale(1,1)"><path fill="none" stroke="#000000" d="M 168.25537109375 320 L 168.25537109375 432" stroke-miterlimit="10"/></g><g transform="translate(-25,-11) scale(1,1)"><g><path fill="none" stroke="none"/><text fill="#000000" stroke="none" font-family="Arial" font-size="13px" font-style="normal" font-weight="bold" text-decoration="none" x="150.342529296875" y="312.5">client</text></g></g><g transform="translate(-25,-11) scale(1,1)"><g><path fill="none" stroke="none"/><text fill="#000000" stroke="none" font-family="Arial" font-size="13px" font-style="normal" font-weight="normal" text-decoration="none" x="68" y="334">PK</text></g></g><g transform="translate(-25,-11) scale(1,1)"><g><path fill="none" stroke="none"/><text fill="#000000" stroke="none" font-family="Arial" font-size="13px" font-style="normal" font-weight="normal" text-decoration="none" x="96.05908203125" y="334">id</text></g></g><g transform="translate(-25,-11) scale(1,1)"><g><path fill="none" stroke="none"/><text fill="#000000" stroke="none" font-family="Arial" font-size="13px" font-style="normal" font-weight="normal" text-decoration="none" x="173.25537109375" y="334">VARCHAR(32)</text></g></g><g transform="translate(-25,-11) scale(1,1)"><g><path fill="none" stroke="none"/><text fill="#000000" stroke="none" font-family="Arial" font-size="13px" font-style="normal" font-weight="normal" text-decoration="none" x="68" y="331"></text></g></g><g transform="translate(-25,-11) scale(1,1)"><g><path fill="none" stroke="none"/><text fill="#000000" stroke="none" font-family="Arial" font-size="13px" font-style="normal" font-weight="normal" text-decoration="none" x="68" y="340"></text></g></g><g transform="translate(-25,-11) scale(1,1)"><g><path fill="none" stroke="none"/><text fill="#000000" stroke="none" font-family="Arial" font-size="13px" font-style="normal" font-weight="normal" text-decoration="none" x="96.05908203125" y="349">fullname</text></g></g><g transform="translate(-25,-11) scale(1,1)"><g><path fill="none" stroke="none"/><text fill="#000000" stroke="none" font-family="Arial" font-size="13px" font-style="normal" font-weight="normal" text-decoration="none" x="173.25537109375" y="349">VARCHAR(255)</text></g></g><g transform="translate(-25,-11) scale(1,1)"><g><path fill="none" stroke="none"/><text fill="#000000" stroke="none" font-family="Arial" font-size="13px" font-style="normal" font-weight="normal" text-decoration="none" x="68" y="346"></text></g></g><g transform="translate(-25,-11) scale(1,1)"><g><path fill="none" stroke="none"/><text fill="#000000" stroke="none" font-family="Arial" font-size="13px" font-style="normal" font-weight="normal" text-decoration="none" x="68" y="364">U</text></g></g><g transform="translate(-25,-11) scale(1,1)"><g><path fill="none" stroke="none"/><text fill="#000000" stroke="none" font-family="Arial" font-size="13px" font-style="normal" font-weight="normal" text-decoration="none" x="96.05908203125" y="363">username</text></g></g><g transform="translate(-25,-11) scale(1,1)"><g><path fill="none" stroke="none"/><text fill="#000000" stroke="none" font-family="Arial" font-size="13px" font-style="normal" font-weight="normal" text-decoration="none" x="173.25537109375" y="364">VARCHAR(45)</text></g></g><g transform="translate(-25,-11) scale(1,1)"><g><path fill="none" stroke="none"/><text fill="#000000" stroke="none" font-family="Arial" font-size="13px" font-style="normal" font-weight="normal" text-decoration="none" x="68" y="361"></text></g></g><g transform="translate(-25,-11) scale(1,1)"><g><path fill="none" stroke="none"/><text fill="#000000" stroke="none" font-family="Arial" font-size="13px" font-style="normal" font-weight="normal" text-decoration="none" x="68" y="379">N</text></g></g><g transform="translate(-25,-11) scale(1,1)"><g><path fill="none" stroke="none"/><text fill="#000000" stroke="none" font-family="Arial" font-size="13px" font-style="normal" font-weight="normal" text-decoration="none" x="96.05908203125" y="379">oapen_id</text></g></g><g transform="translate(-25,-11) scale(1,1)"><g><path fill="none" stroke="none"/><text fill="#000000" stroke="none" font-family="Arial" font-size="13px" font-style="normal" font-weight="normal" text-decoration="none" x="173.25537109375" y="379">VARCHAR(255)</text></g></g><g transform="translate(-25,-11) scale(1,1)"><g><path fill="none" stroke="none"/><text fill="#000000" stroke="none" font-family="Arial" font-size="13px" font-style="normal" font-weight="normal" text-decoration="none" x="68" y="376"></text></g></g><g transform="translate(-25,-11) scale(1,1)"><g><path fill="none" stroke="none"/><text fill="#000000" stroke="none" font-family="Arial" font-size="13px" font-style="normal" font-weight="normal" text-decoration="none" x="68" y="385"></text></g></g><g transform="translate(-25,-11) scale(1,1)"><g><path fill="none" stroke="none"/><text fill="#000000" stroke="none" font-family="Arial" font-size="13px" font-style="normal" font-weight="normal" text-decoration="none" x="96.05908203125" y="394">password</text></g></g><g transform="translate(-25,-11) scale(1,1)"><g><path fill="none" stroke="none"/><text fill="#000000" stroke="none" font-family="Arial" font-size="13px" font-style="normal" font-weight="normal" text-decoration="none" x="173.25537109375" y="394">VARCHAR(255)</text></g></g><g transform="translate(-25,-11) scale(1,1)"><g><path fill="none" stroke="none"/><text fill="#000000" stroke="none" font-family="Arial" font-size="13px" font-style="normal" font-weight="normal" text-decoration="none" x="68" y="391"></text></g></g><g transform="translate(-25,-11) scale(1,1)"><g><path fill="none" stroke="none"/><text fill="#000000" stroke="none" font-family="Arial" font-size="13px" font-style="normal" font-weight="normal" text-decoration="none" x="68" y="400"></text></g></g><g transform="translate(-25,-11) scale(1,1)"><g><path fill="none" stroke="none"/><text fill="#000000" stroke="none" font-family="Arial" font-size="13px" font-style="normal" font-weight="normal" text-decoration="none" x="96.05908203125" y="409">is_editable</text></g></g><g transform="translate(-25,-11) scale(1,1)"><g><path fill="none" stroke="none"/><text fill="#000000" stroke="none" font-family="Arial" font-size="13px" font-style="normal" font-weight="normal" text-decoration="none" x="173.25537109375" y="409">BOOLEAN</text></g></g><g transform="translate(-25,-11) scale(1,1)"><g><path fill="none" stroke="none"/><text fill="#000000" stroke="none" font-family="Arial" font-size="13px" font-style="normal" font-weight="normal" text-decoration="none" x="68" y="406"></text></g></g><g transform="translate(-25,-11) scale(1,1)"><g><path fill="none" stroke="none"/><text fill="#000000" stroke="none" font-family="Arial" font-size="13px" font-style="normal" font-weight="normal" text-decoration="none" x="68" y="424">N</text></g></g><g transform="translate(-25,-11) scale(1,1)"><g><path fill="none" stroke="none"/><text fill="#000000" stroke="none" font-family="Arial" font-size="13px" font-style="normal" font-weight="normal" text-decoration="none" x="96.05908203125" y="424">notes</text></g></g><g transform="translate(-25,-11) scale(1,1)"><g><path fill="none" stroke="none"/><text fill="#000000" stroke="none" font-family="Arial" font-size="13px" font-style="normal" font-weight="normal" text-decoration="none" x="173.25537109375" y="424">TEXT</text></g></g><g transform="translate(-25,-11) scale(1,1)"><g><path fill="none" stroke="none"/><text fill="#000000" stroke="none" font-family="Arial" font-size="13px" font-style="normal" font-weight="normal" text-decoration="none" x="68" y="421"></text></g></g><g transform="translate(-25,-11) scale(1,1)"><rect fill="#C0C0C0" stroke="none" x="1047" y="316" width="200" height="110" opacity="0.2"/></g><g transform="translate(-25,-11) scale(1,1)"><rect fill="#ffffff" stroke="none" x="1040" y="309" width="200" height="110"/></g><g transform="translate(-25,-11) scale(1,1)"><path fill="none" stroke="#000000" d="M 1040 309 L 1240 309 L 1240 419 L 1040 419 L 1040 309 Z Z" stroke-miterlimit="10"/></g><g transform="translate(-25,-11) scale(1,1)"><path fill="none" stroke="#000000" d="M 1040 332 L 1240 332" stroke-miterlimit="10"/></g><g transform="translate(-25,-11) scale(1,1)"><path fill="none" stroke="#000000" d="M 1068.05908203125 332 L 1068.05908203125 419" stroke-miterlimit="10"/></g><g transform="translate(-25,-11) scale(1,1)"><path fill="none" stroke="#000000" d="M 1132.24267578125 332 L 1132.24267578125 419" stroke-miterlimit="10"/></g><g transform="translate(-25,-11) scale(1,1)"><g><path fill="none" stroke="none"/><text fill="#000000" stroke="none" font-family="Arial" font-size="13px" font-style="normal" font-weight="bold" text-decoration="none" x="1122.299560546875" y="324">query</text></g></g><g transform="translate(-25,-11) scale(1,1)"><g><path fill="none" stroke="none"/><text fill="#000000" stroke="none" font-family="Arial" font-size="13px" font-style="normal" font-weight="normal" text-decoration="none" x="1045" y="346">PK</text></g></g><g transform="translate(-25,-11) scale(1,1)"><g><path fill="none" stroke="none"/><text fill="#000000" stroke="none" font-family="Arial" font-size="13px" font-style="normal" font-weight="normal" text-decoration="none" x="1073.05908203125" y="346">id</text></g></g><g transform="translate(-25,-11) scale(1,1)"><g><path fill="none" stroke="none"/><text fill="#000000" stroke="none" font-family="Arial" font-size="13px" font-style="normal" font-weight="normal" text-decoration="none" x="1137.24267578125" y="346">VARCHAR(32)</text></g></g><g transform="translate(-25,-11) scale(1,1)"><g><path fill="none" stroke="none"/><text fill="#000000" stroke="none" font-family="Arial" font-size="13px" font-style="normal" font-weight="normal" text-decoration="none" x="1045" y="343"></text></g></g><g transform="translate(-25,-11) scale(1,1)"><g><path fill="none" stroke="none"/><text fill="#000000" stroke="none" font-family="Arial" font-size="13px" font-style="normal" font-weight="normal" text-decoration="none" x="1045" y="352"></text></g></g><g transform="translate(-25,-11) scale(1,1)"><g><path fill="none" stroke="none"/><text fill="#000000" stroke="none" font-family="Arial" font-size="13px" font-style="normal" font-weight="normal" text-decoration="none" x="1073.05908203125" y="359">name</text></g></g><g transform="translate(-25,-11) scale(1,1)"><g><path fill="none" stroke="none"/><text fill="#000000" stroke="none" font-family="Arial" font-size="13px" font-style="normal" font-weight="normal" text-decoration="none" x="1137.24267578125" y="361">VARCHAR(255)</text></g></g><g transform="translate(-25,-11) scale(1,1)"><g><path fill="none" stroke="none"/><text fill="#000000" stroke="none" font-family="Arial" font-size="13px" font-style="normal" font-weight="normal" text-decoration="none" x="1045" y="358"></text></g></g><g transform="translate(-25,-11) scale(1,1)"><g><path fill="none" stroke="none"/><text fill="#000000" stroke="none" font-family="Arial" font-size="13px" font-style="normal" font-weight="normal" text-decoration="none" x="1045" y="376">N</text></g></g><g transform="translate(-25,-11) scale(1,1)"><g><path fill="none" stroke="none"/><text fill="#000000" stroke="none" font-family="Arial" font-size="13px" font-style="normal" font-weight="normal" text-decoration="none" x="1073.05908203125" y="376">body</text></g></g><g transform="translate(-25,-11) scale(1,1)"><g><path fill="none" stroke="none"/><text fill="#000000" stroke="none" font-family="Arial" font-size="13px" font-style="normal" font-weight="normal" text-decoration="none" x="1137.24267578125" y="376">TEXT</text></g></g><g transform="translate(-25,-11) scale(1,1)"><g><path fill="none" stroke="none"/><text fill="#000000" stroke="none" font-family="Arial" font-size="13px" font-style="normal" font-weight="normal" text-decoration="none" x="1045" y="373"></text></g></g><g transform="translate(-25,-11) scale(1,1)"><g><path fill="none" stroke="none"/><text fill="#000000" stroke="none" font-family="Arial" font-size="13px" font-style="normal" font-weight="normal" text-decoration="none" x="1045" y="391">N</text></g></g><g transform="translate(-25,-11) scale(1,1)"><g><path fill="none" stroke="none"/><text fill="#000000" stroke="none" font-family="Arial" font-size="13px" font-style="normal" font-weight="normal" text-decoration="none" x="1073.05908203125" y="390">params</text></g></g><g transform="translate(-25,-11) scale(1,1)"><g><path fill="none" stroke="none"/><text fill="#000000" stroke="none" font-family="Arial" font-size="13px" font-style="normal" font-weight="normal" text-decoration="none" x="1137.24267578125" y="391">TEXT</text></g></g><g transform="translate(-25,-11) scale(1,1)"><g><path fill="none" stroke="none"/><text fill="#000000" stroke="none" font-family="Arial" font-size="13px" font-style="normal" font-weight="normal" text-decoration="none" x="1045" y="388"></text></g></g><g transform="translate(-25,-11) scale(1,1)"><g><path fill="none" stroke="none"/><text fill="#000000" stroke="none" font-family="Arial" font-size="13px" font-style="normal" font-weight="normal" text-decoration="none" x="1045" y="406">FK</text></g></g><g transform="translate(-25,-11) scale(1,1)"><g><path fill="none" stroke="none"/><text fill="#000000" stroke="none" font-family="Arial" font-size="13px" font-style="normal" font-weight="normal" text-decoration="none" x="1073.05908203125" y="406">id_script</text></g></g><g transform="translate(-25,-11) scale(1,1)"><g><path fill="none" stroke="none"/><text fill="#000000" stroke="none" font-family="Arial" font-size="13px" font-style="normal" font-weight="normal" text-decoration="none" x="1137.24267578125" y="406">VARCHAR(32)</text></g></g><g transform="translate(-25,-11) scale(1,1)"><g><path fill="none" stroke="none"/><text fill="#000000" stroke="none" font-family="Arial" font-size="13px" font-style="normal" font-weight="normal" text-decoration="none" x="1045" y="403"></text></g></g><g transform="translate(-25,-11) scale(1,1)"><rect fill="#C0C0C0" stroke="none" x="732" y="311" width="242.154296875" height="120" opacity="0.2"/></g><g transform="translate(-25,-11) scale(1,1)"><rect fill="#ffffff" stroke="none" x="725" y="304" width="242.154296875" height="120"/></g><g transform="translate(-25,-11) scale(1,1)"><path fill="none" stroke="#000000" d="M 725 304 L 967.154296875 304 L 967.154296875 424 L 725 424 L 725 304 Z Z" stroke-miterlimit="10"/></g><g transform="translate(-25,-11) scale(1,1)"><path fill="none" stroke="#000000" d="M 725 327 L 967.154296875 327" stroke-miterlimit="10"/></g><g transform="translate(-25,-11) scale(1,1)"><path fill="none" stroke="#000000" d="M 753.05908203125 327 L 753.05908203125 424" stroke-miterlimit="10"/></g><g transform="translate(-25,-11) scale(1,1)"><path fill="none" stroke="#000000" d="M 809.30810546875 327 L 809.30810546875 424" stroke-miterlimit="10"/></g><g transform="translate(-25,-11) scale(1,1)"><g><path fill="none" stroke="none"/><text fill="#000000" stroke="none" font-family="Arial" font-size="13px" font-style="normal" font-weight="bold" text-decoration="none" x="828.376708984375" y="319.5">script</text></g></g><g transform="translate(-25,-11) scale(1,1)"><g><path fill="none" stroke="none"/><text fill="#000000" stroke="none" font-family="Arial" font-size="13px" font-style="normal" font-weight="normal" text-decoration="none" x="730" y="341">PK</text></g></g><g transform="translate(-25,-11) scale(1,1)"><g><path fill="none" stroke="none"/><text fill="#000000" stroke="none" font-family="Arial" font-size="13px" font-style="normal" font-weight="normal" text-decoration="none" x="758.05908203125" y="341">id</text></g></g><g transform="translate(-25,-11) scale(1,1)"><g><path fill="none" stroke="none"/><text fill="#000000" stroke="none" font-family="Arial" font-size="13px" font-style="normal" font-weight="normal" text-decoration="none" x="814.30810546875" y="341">VARCHAR(32)</text></g></g><g transform="translate(-25,-11) scale(1,1)"><g><path fill="none" stroke="none"/><text fill="#000000" stroke="none" font-family="Arial" font-size="13px" font-style="normal" font-weight="normal" text-decoration="none" x="730" y="338"></text></g></g><g transform="translate(-25,-11) scale(1,1)"><g><path fill="none" stroke="none"/><text fill="#000000" stroke="none" font-family="Arial" font-size="13px" font-style="normal" font-weight="normal" text-decoration="none" x="730" y="347"></text></g></g><g transform="translate(-25,-11) scale(1,1)"><g><path fill="none" stroke="none"/><text fill="#000000" stroke="none" font-family="Arial" font-size="13px" font-style="normal" font-weight="normal" text-decoration="none" x="758.05908203125" y="354">name</text></g></g><g transform="translate(-25,-11) scale(1,1)"><g><path fill="none" stroke="none"/><text fill="#000000" stroke="none" font-family="Arial" font-size="13px" font-style="normal" font-weight="normal" text-decoration="none" x="814.30810546875" y="356">VARCHAR(255)</text></g></g><g transform="translate(-25,-11) scale(1,1)"><g><path fill="none" stroke="none"/><text fill="#000000" stroke="none" font-family="Arial" font-size="13px" font-style="normal" font-weight="normal" text-decoration="none" x="730" y="353"></text></g></g><g transform="translate(-25,-11) scale(1,1)"><g><path fill="none" stroke="none"/><text fill="#000000" stroke="none" font-family="Arial" font-size="13px" font-style="normal" font-weight="normal" text-decoration="none" x="730" y="362"></text></g></g><g transform="translate(-25,-11) scale(1,1)"><g><path fill="none" stroke="none"/><text fill="#000000" stroke="none" font-family="Arial" font-size="13px" font-style="normal" font-weight="normal" text-decoration="none" x="758.05908203125" y="371">type</text></g></g><g transform="translate(-25,-11) scale(1,1)"><g><path fill="none" stroke="none"/><text fill="#000000" stroke="none" font-family="Arial" font-size="13px" font-style="normal" font-weight="normal" text-decoration="none" x="814.30810546875" y="371">ENUM('MAIN','SNIP')</text></g></g><g transform="translate(-25,-11) scale(1,1)"><g><path fill="none" stroke="none"/><text fill="#000000" stroke="none" font-family="Arial" font-size="13px" font-style="normal" font-weight="normal" text-decoration="none" x="730" y="368"></text></g></g><g transform="translate(-25,-11) scale(1,1)"><g><path fill="none" stroke="none"/><text fill="#000000" stroke="none" font-family="Arial" font-size="13px" font-style="normal" font-weight="normal" text-decoration="none" x="730" y="386">N</text></g></g><g transform="translate(-25,-11) scale(1,1)"><g><path fill="none" stroke="none"/><text fill="#000000" stroke="none" font-family="Arial" font-size="13px" font-style="normal" font-weight="normal" text-decoration="none" x="758.05908203125" y="386">body</text></g></g><g transform="translate(-25,-11) scale(1,1)"><g><path fill="none" stroke="none"/><text fill="#000000" stroke="none" font-family="Arial" font-size="13px" font-style="normal" font-weight="normal" text-decoration="none" x="814.30810546875" y="386">TEXT</text></g></g><g transform="translate(-25,-11) scale(1,1)"><g><path fill="none" stroke="none"/><text fill="#000000" stroke="none" font-family="Arial" font-size="13px" font-style="normal" font-weight="normal" text-decoration="none" x="730" y="383"></text></g></g><g transform="translate(-25,-11) scale(1,1)"><g><path fill="none" stroke="none"/><text fill="#000000" stroke="none" font-family="Arial" font-size="13px" font-style="normal" font-weight="normal" text-decoration="none" x="730" y="401">N</text></g></g><g transform="translate(-25,-11) scale(1,1)"><g><path fill="none" stroke="none"/><text fill="#000000" stroke="none" font-family="Arial" font-size="13px" font-style="normal" font-weight="normal" text-decoration="none" x="758.05908203125" y="400">params</text></g></g><g transform="translate(-25,-11) scale(1,1)"><g><path fill="none" stroke="none"/><text fill="#000000" stroke="none" font-family="Arial" font-size="13px" font-style="normal" font-weight="normal" text-decoration="none" x="814.30810546875" y="401">TEXT</text></g></g><g transform="translate(-25,-11) scale(1,1)"><g><path fill="none" stroke="none"/><text fill="#000000" stroke="none" font-family="Arial" font-size="13px" font-style="normal" font-weight="normal" text-decoration="none" x="730" y="398"></text></g></g><g transform="translate(-25,-11) scale(1,1)"><rect fill="#C0C0C0" stroke="none" x="355" y="241" width="310.18212890625" height="260" opacity="0.2"/></g><g transform="translate(-25,-11) scale(1,1)"><rect fill="#ffffff" stroke="none" x="348" y="234" width="310.18212890625" height="260"/></g><g transform="translate(-25,-11) scale(1,1)"><path fill="none" stroke="#000000" d="M 348 234 L 658.18212890625 234 L 658.18212890625 494 L 348 494 L 348 234 Z Z" stroke-miterlimit="10"/></g><g transform="translate(-25,-11) scale(1,1)"><path fill="none" stroke="#000000" d="M 348 257 L 658.18212890625 257" stroke-miterlimit="10"/></g><g transform="translate(-25,-11) scale(1,1)"><path fill="none" stroke="#000000" d="M 388.3291015625 257 L 388.3291015625 494" stroke-miterlimit="10"/></g><g transform="translate(-25,-11) scale(1,1)"><path fill="none" stroke="#000000" d="M 525.5234375 257 L 525.5234375 494" stroke-miterlimit="10"/></g><g transform="translate(-25,-11) scale(1,1)"><g><path fill="none" stroke="none"/><text fill="#000000" stroke="none" font-family="Arial" font-size="13px" font-style="normal" font-weight="bold" text-decoration="none" x="490.08154296875" y="249.5">task</text></g></g><g transform="translate(-25,-11) scale(1,1)"><g><path fill="none" stroke="none"/><text fill="#000000" stroke="none" font-family="Arial" font-size="13px" font-style="normal" font-weight="normal" text-decoration="none" x="353" y="271">PK</text></g></g><g transform="translate(-25,-11) scale(1,1)"><g><path fill="none" stroke="none"/><text fill="#000000" stroke="none" font-family="Arial" font-size="13px" font-style="normal" font-weight="normal" text-decoration="none" x="393.3291015625" y="271">id</text></g></g><g transform="translate(-25,-11) scale(1,1)"><g><path fill="none" stroke="none"/><text fill="#000000" stroke="none" font-family="Arial" font-size="13px" font-style="normal" font-weight="normal" text-decoration="none" x="530.5234375" y="271">VARCHAR(32)</text></g></g><g transform="translate(-25,-11) scale(1,1)"><g><path fill="none" stroke="none"/><text fill="#000000" stroke="none" font-family="Arial" font-size="13px" font-style="normal" font-weight="normal" text-decoration="none" x="353" y="268"></text></g></g><g transform="translate(-25,-11) scale(1,1)"><g><path fill="none" stroke="none"/><text fill="#000000" stroke="none" font-family="Arial" font-size="13px" font-style="normal" font-weight="normal" text-decoration="none" x="353" y="277"></text></g></g><g transform="translate(-25,-11) scale(1,1)"><g><path fill="none" stroke="none"/><text fill="#000000" stroke="none" font-family="Arial" font-size="13px" font-style="normal" font-weight="normal" text-decoration="none" x="393.3291015625" y="284">name</text></g></g><g transform="translate(-25,-11) scale(1,1)"><g><path fill="none" stroke="none"/><text fill="#000000" stroke="none" font-family="Arial" font-size="13px" font-style="normal" font-weight="normal" text-decoration="none" x="530.5234375" y="286">VARCHAR(100)</text></g></g><g transform="translate(-25,-11) scale(1,1)"><g><path fill="none" stroke="none"/><text fill="#000000" stroke="none" font-family="Arial" font-size="13px" font-style="normal" font-weight="normal" text-decoration="none" x="353" y="283"></text></g></g><g transform="translate(-25,-11) scale(1,1)"><g><path fill="none" stroke="none"/><text fill="#000000" stroke="none" font-family="Arial" font-size="13px" font-style="normal" font-weight="normal" text-decoration="none" x="353" y="292"></text></g></g><g transform="translate(-25,-11) scale(1,1)"><g><path fill="none" stroke="none"/><text fill="#000000" stroke="none" font-family="Arial" font-size="13px" font-style="normal" font-weight="normal" text-decoration="none" x="393.3291015625" y="301">start_date</text></g></g><g transform="translate(-25,-11) scale(1,1)"><g><path fill="none" stroke="none"/><text fill="#000000" stroke="none" font-family="Arial" font-size="13px" font-style="normal" font-weight="normal" text-decoration="none" x="530.5234375" y="301">DATE</text></g></g><g transform="translate(-25,-11) scale(1,1)"><g><path fill="none" stroke="none"/><text fill="#000000" stroke="none" font-family="Arial" font-size="13px" font-style="normal" font-weight="normal" text-decoration="none" x="353" y="298"></text></g></g><g transform="translate(-25,-11) scale(1,1)"><g><path fill="none" stroke="none"/><text fill="#000000" stroke="none" font-family="Arial" font-size="13px" font-style="normal" font-weight="normal" text-decoration="none" x="353" y="307"></text></g></g><g transform="translate(-25,-11) scale(1,1)"><g><path fill="none" stroke="none"/><text fill="#000000" stroke="none" font-family="Arial" font-size="13px" font-style="normal" font-weight="normal" text-decoration="none" x="393.3291015625" y="316">frequency</text></g></g><g transform="translate(-25,-11) scale(1,1)"><g><path fill="none" stroke="none"/><text fill="#000000" stroke="none" font-family="Arial" font-size="13px" font-style="normal" font-weight="normal" text-decoration="none" x="530.5234375" y="316">ENUM('D','W','M','Y')</text></g></g><g transform="translate(-25,-11) scale(1,1)"><g><path fill="none" stroke="none"/><text fill="#000000" stroke="none" font-family="Arial" font-size="13px" font-style="normal" font-weight="normal" text-decoration="none" x="353" y="313"></text></g></g><g transform="translate(-25,-11) scale(1,1)"><g><path fill="none" stroke="none"/><text fill="#000000" stroke="none" font-family="Arial" font-size="13px" font-style="normal" font-weight="normal" text-decoration="none" x="353" y="322"></text></g></g><g transform="translate(-25,-11) scale(1,1)"><g><path fill="none" stroke="none"/><text fill="#000000" stroke="none" font-family="Arial" font-size="13px" font-style="normal" font-weight="normal" text-decoration="none" x="393.3291015625" y="331">is_active</text></g></g><g transform="translate(-25,-11) scale(1,1)"><g><path fill="none" stroke="none"/><text fill="#000000" stroke="none" font-family="Arial" font-size="13px" font-style="normal" font-weight="normal" text-decoration="none" x="530.5234375" y="331">BOOLEAN</text></g></g><g transform="translate(-25,-11) scale(1,1)"><g><path fill="none" stroke="none"/><text fill="#000000" stroke="none" font-family="Arial" font-size="13px" font-style="normal" font-weight="normal" text-decoration="none" x="353" y="328"></text></g></g><g transform="translate(-25,-11) scale(1,1)"><g><path fill="none" stroke="none"/><text fill="#000000" stroke="none" font-family="Arial" font-size="13px" font-style="normal" font-weight="normal" text-decoration="none" x="353" y="346">N</text></g></g><g transform="translate(-25,-11) scale(1,1)"><g><path fill="none" stroke="none"/><text fill="#000000" stroke="none" font-family="Arial" font-size="13px" font-style="normal" font-weight="normal" text-decoration="none" x="393.3291015625" y="346">last_run_date</text></g></g><g transform="translate(-25,-11) scale(1,1)"><g><path fill="none" stroke="none"/><text fill="#000000" stroke="none" font-family="Arial" font-size="13px" font-style="normal" font-weight="normal" text-decoration="none" x="530.5234375" y="346">DATE</text></g></g><g transform="translate(-25,-11) scale(1,1)"><g><path fill="none" stroke="none"/><text fill="#000000" stroke="none" font-family="Arial" font-size="13px" font-style="normal" font-weight="normal" text-decoration="none" x="353" y="343"></text></g></g><g transform="translate(-25,-11) scale(1,1)"><g><path fill="none" stroke="none"/><text fill="#000000" stroke="none" font-family="Arial" font-size="13px" font-style="normal" font-weight="normal" text-decoration="none" x="353" y="361">N</text></g></g><g transform="translate(-25,-11) scale(1,1)"><g><path fill="none" stroke="none"/><text fill="#000000" stroke="none" font-family="Arial" font-size="13px" font-style="normal" font-weight="normal" text-decoration="none" x="393.3291015625" y="361">is_last_run_success</text></g></g><g transform="translate(-25,-11) scale(1,1)"><g><path fill="none" stroke="none"/><text fill="#000000" stroke="none" font-family="Arial" font-size="13px" font-style="normal" font-weight="normal" text-decoration="none" x="530.5234375" y="361">BOOLEAN</text></g></g><g transform="translate(-25,-11) scale(1,1)"><g><path fill="none" stroke="none"/><text fill="#000000" stroke="none" font-family="Arial" font-size="13px" font-style="normal" font-weight="normal" text-decoration="none" x="353" y="358"></text></g></g><g transform="translate(-25,-11) scale(1,1)"><g><path fill="none" stroke="none"/><text fill="#000000" stroke="none" font-family="Arial" font-size="13px" font-style="normal" font-weight="normal" text-decoration="none" x="353" y="376">N</text></g></g><g transform="translate(-25,-11) scale(1,1)"><g><path fill="none" stroke="none"/><text fill="#000000" stroke="none" font-family="Arial" font-size="13px" font-style="normal" font-weight="normal" text-decoration="none" x="393.3291015625" y="376">last_run_message</text></g></g><g transform="translate(-25,-11) scale(1,1)"><g><path fill="none" stroke="none"/><text fill="#000000" stroke="none" font-family="Arial" font-size="13px" font-style="normal" font-weight="normal" text-decoration="none" x="530.5234375" y="376">TEXT</text></g></g><g transform="translate(-25,-11) scale(1,1)"><g><path fill="none" stroke="none"/><text fill="#000000" stroke="none" font-family="Arial" font-size="13px" font-style="normal" font-weight="normal" text-decoration="none" x="353" y="373"></text></g></g><g transform="translate(-25,-11) scale(1,1)"><g><path fill="none" stroke="none"/><text fill="#000000" stroke="none" font-family="Arial" font-size="13px" font-style="normal" font-weight="normal" text-decoration="none" x="353" y="391">FK</text></g></g><g transform="translate(-25,-11) scale(1,1)"><g><path fill="none" stroke="none"/><text fill="#000000" stroke="none" font-family="Arial" font-size="13px" font-style="normal" font-weight="normal" text-decoration="none" x="393.3291015625" y="391">id_client</text></g></g><g transform="translate(-25,-11) scale(1,1)"><g><path fill="none" stroke="none"/><text fill="#000000" stroke="none" font-family="Arial" font-size="13px" font-style="normal" font-weight="normal" text-decoration="none" x="530.5234375" y="391">VARCHAR(32)</text></g></g><g transform="translate(-25,-11) scale(1,1)"><g><path fill="none" stroke="none"/><text fill="#000000" stroke="none" font-family="Arial" font-size="13px" font-style="normal" font-weight="normal" text-decoration="none" x="353" y="388"></text></g></g><g transform="translate(-25,-11) scale(1,1)"><g><path fill="none" stroke="none"/><text fill="#000000" stroke="none" font-family="Arial" font-size="13px" font-style="normal" font-weight="normal" text-decoration="none" x="353" y="406">FK,U</text></g></g><g transform="translate(-25,-11) scale(1,1)"><g><path fill="none" stroke="none"/><text fill="#000000" stroke="none" font-family="Arial" font-size="13px" font-style="normal" font-weight="normal" text-decoration="none" x="393.3291015625" y="406">id_script</text></g></g><g transform="translate(-25,-11) scale(1,1)"><g><path fill="none" stroke="none"/><text fill="#000000" stroke="none" font-family="Arial" font-size="13px" font-style="normal" font-weight="normal" text-decoration="none" x="530.5234375" y="406">VARCHAR(32)</text></g></g><g transform="translate(-25,-11) scale(1,1)"><g><path fill="none" stroke="none"/><text fill="#000000" stroke="none" font-family="Arial" font-size="13px" font-style="normal" font-weight="normal" text-decoration="none" x="353" y="403"></text></g></g><g transform="translate(-25,-11) scale(1,1)"><path fill="none" stroke="#000000" d="M 272 361 L 348 361" stroke-miterlimit="10"/></g><g transform="translate(-25,-11) scale(1,1)"><path fill="none" stroke="#000000" d="M 334 361 L 348 368" stroke-miterlimit="10"/></g><g transform="translate(-25,-11) scale(1,1)"><path fill="none" stroke="#000000" d="M 334 361 L 348 354" stroke-miterlimit="10"/></g><g transform="translate(-25,-11) scale(1,1)"><path fill="#FFFFFF" stroke="none" d="M 319 361 C 319 357.1340064 322.1340064 354 326 354 C 329.8659936 354 333 357.1340064 333 361 C 333 364.8659936 329.8659936 368 326 368 C 322.1340064 368 319 364.8659936 319 361 Z"/></g><g transform="translate(-25,-11) scale(1,1)"><path fill="none" stroke="#000000" d="M 319 361 C 319 357.1340064 322.1340064 354 326 354 C 329.8659936 354 333 357.1340064 333 361 C 333 364.8659936 329.8659936 368 326 368 C 322.1340064 368 319 364.8659936 319 361 Z" stroke-miterlimit="10"/></g><g transform="translate(-25,-11) scale(1,1)"><path fill="none" stroke="#000000" d="M 279 354 L 279 368" stroke-miterlimit="10"/></g><g transform="translate(-25,-11) scale(1,1)"><path fill="none" stroke="#000000" d="M 286 354 L 286 368" stroke-miterlimit="10"/></g><g transform="translate(-25,-11) scale(1,1)"><g><path fill="none" stroke="none"/><text fill="#000000" stroke="none" font-family="Arial" font-size="13px" font-style="normal" font-weight="normal" text-decoration="none" x="296.5" y="346"></text></g></g><g transform="translate(-25,-11) scale(1,1)"><g><path fill="none" stroke="none"/><text fill="#000000" stroke="none" font-family="Arial" font-size="13px" font-style="normal" font-weight="normal" text-decoration="none" x="321.5" y="346"></text></g></g><g transform="translate(-25,-11) scale(1,1)"><path fill="none" stroke="#000000" d="M 967 358 L 1040 358" stroke-miterlimit="10"/></g><g transform="translate(-25,-11) scale(1,1)"><path fill="none" stroke="#000000" d="M 1026 358 L 1040 365" stroke-miterlimit="10"/></g><g transform="translate(-25,-11) scale(1,1)"><path fill="none" stroke="#000000" d="M 1026 358 L 1040 351" stroke-miterlimit="10"/></g><g transform="translate(-25,-11) scale(1,1)"><path fill="#FFFFFF" stroke="none" d="M 1011 358 C 1011 354.1340064 1014.1340064 351 1018 351 C 1021.8659936 351 1025 354.1340064 1025 358 C 1025 361.8659936 1021.8659936 365 1018 365 C 1014.1340064 365 1011 361.8659936 1011 358 Z"/></g><g transform="translate(-25,-11) scale(1,1)"><path fill="none" stroke="#000000" d="M 1011 358 C 1011 354.1340064 1014.1340064 351 1018 351 C 1021.8659936 351 1025 354.1340064 1025 358 C 1025 361.8659936 1021.8659936 365 1018 365 C 1014.1340064 365 1011 361.8659936 1011 358 Z" stroke-miterlimit="10"/></g><g transform="translate(-25,-11) scale(1,1)"><path fill="none" stroke="#000000" d="M 974 351 L 974 365" stroke-miterlimit="10"/></g><g transform="translate(-25,-11) scale(1,1)"><path fill="none" stroke="#000000" d="M 981 351 L 981 365" stroke-miterlimit="10"/></g><g transform="translate(-25,-11) scale(1,1)"><g><path fill="none" stroke="none"/><text fill="#000000" stroke="none" font-family="Arial" font-size="13px" font-style="normal" font-weight="normal" text-decoration="none" x="991.5" y="343"></text></g></g><g transform="translate(-25,-11) scale(1,1)"><g><path fill="none" stroke="none"/><text fill="#000000" stroke="none" font-family="Arial" font-size="13px" font-style="normal" font-weight="normal" text-decoration="none" x="1013.5" y="343"></text></g></g><g transform="translate(-25,-11) scale(1,1)"><rect fill="#ffffff" stroke="none" x="35" y="21" width="659" height="54"/></g><g transform="translate(-25,-11) scale(1,1)"><path fill="none" stroke="#000000" d="M 35 21 L 694 21 L 694 75 L 35 75 L 35 21 Z Z" stroke-miterlimit="10"/></g><g transform="translate(-25,-11) scale(1,1)"><g><path fill="none" stroke="none"/><text fill="#000000" stroke="none" font-family="Arial" font-size="13px" font-style="normal" font-weight="normal" text-decoration="none" x="40" y="35">OAPEN MEMO Project - Manager database</text></g></g><g transform="translate(-25,-11) scale(1,1)"><g><path fill="none" stroke="none"/><text fill="#000000" stroke="none" font-family="Arial" font-size="13px" font-style="normal" font-weight="normal" text-decoration="none" x="40" y="50">Entity Relation Diagram</text></g></g><g transform="translate(-25,-11) scale(1,1)"><g><path fill="none" stroke="none"/><text fill="#000000" stroke="none" font-family="Arial" font-size="13px" font-style="normal" font-weight="normal" text-decoration="none" x="40" y="65">Version 230615-1</text></g></g><g transform="translate(-25,-11) scale(1,1)"><rect fill="#C0C0C0" stroke="none" x="395" y="561" width="230" height="120" opacity="0.2"/></g><g transform="translate(-25,-11) scale(1,1)"><rect fill="#ffffff" stroke="none" x="388" y="554" width="230" height="120"/></g><g transform="translate(-25,-11) scale(1,1)"><path fill="none" stroke="#000000" d="M 388 554 L 618 554 L 618 674 L 388 674 L 388 554 Z Z" stroke-miterlimit="10"/></g><g transform="translate(-25,-11) scale(1,1)"><path fill="none" stroke="#000000" d="M 388 577 L 618 577" stroke-miterlimit="10"/></g><g transform="translate(-25,-11) scale(1,1)"><path fill="none" stroke="#000000" d="M 416.05908203125 577 L 416.05908203125 674" stroke-miterlimit="10"/></g><g transform="translate(-25,-11) scale(1,1)"><path fill="none" stroke="#000000" d="M 495.45166015625 577 L 495.45166015625 674" stroke-miterlimit="10"/></g><g transform="translate(-25,-11) scale(1,1)"><g><path fill="none" stroke="none"/><text fill="#000000" stroke="none" font-family="Arial" font-size="13px" font-style="normal" font-weight="bold" text-decoration="none" x="482.78271484375" y="569.5">runlog</text></g></g><g transform="translate(-25,-11) scale(1,1)"><g><path fill="none" stroke="none"/><text fill="#000000" stroke="none" font-family="Arial" font-size="13px" font-style="normal" font-weight="normal" text-decoration="none" x="393" y="591">PK</text></g></g><g transform="translate(-25,-11) scale(1,1)"><g><path fill="none" stroke="none"/><text fill="#000000" stroke="none" font-family="Arial" font-size="13px" font-style="normal" font-weight="normal" text-decoration="none" x="421.05908203125" y="591">id</text></g></g><g transform="translate(-25,-11) scale(1,1)"><g><path fill="none" stroke="none"/><text fill="#000000" stroke="none" font-family="Arial" font-size="13px" font-style="normal" font-weight="normal" text-decoration="none" x="500.45166015625" y="591">INTEGER</text></g></g><g transform="translate(-25,-11) scale(1,1)"><g><path fill="none" stroke="none"/><text fill="#000000" stroke="none" font-family="Arial" font-size="13px" font-style="normal" font-weight="normal" text-decoration="none" x="393" y="588"></text></g></g><g transform="translate(-25,-11) scale(1,1)"><g><path fill="none" stroke="none"/><text fill="#000000" stroke="none" font-family="Arial" font-size="13px" font-style="normal" font-weight="normal" text-decoration="none" x="393" y="597"></text></g></g><g transform="translate(-25,-11) scale(1,1)"><g><path fill="none" stroke="none"/><text fill="#000000" stroke="none" font-family="Arial" font-size="13px" font-style="normal" font-weight="normal" text-decoration="none" x="421.05908203125" y="606">date</text></g></g><g transform="translate(-25,-11) scale(1,1)"><g><path fill="none" stroke="none"/><text fill="#000000" stroke="none" font-family="Arial" font-size="13px" font-style="normal" font-weight="normal" text-decoration="none" x="500.45166015625" y="606">DATE</text></g></g><g transform="translate(-25,-11) scale(1,1)"><g><path fill="none" stroke="none"/><text fill="#000000" stroke="none" font-family="Arial" font-size="13px" font-style="normal" font-weight="normal" text-decoration="none" x="393" y="603"></text></g></g><g transform="translate(-25,-11) scale(1,1)"><g><path fill="none" stroke="none"/><text fill="#000000" stroke="none" font-family="Arial" font-size="13px" font-style="normal" font-weight="normal" text-decoration="none" x="393" y="612"></text></g></g><g transform="translate(-25,-11) scale(1,1)"><g><path fill="none" stroke="none"/><text fill="#000000" stroke="none" font-family="Arial" font-size="13px" font-style="normal" font-weight="normal" text-decoration="none" x="421.05908203125" y="621">is_success</text></g></g><g transform="translate(-25,-11) scale(1,1)"><g><path fill="none" stroke="none"/><text fill="#000000" stroke="none" font-family="Arial" font-size="13px" font-style="normal" font-weight="normal" text-decoration="none" x="500.45166015625" y="621">BOOLEAN</text></g></g><g transform="translate(-25,-11) scale(1,1)"><g><path fill="none" stroke="none"/><text fill="#000000" stroke="none" font-family="Arial" font-size="13px" font-style="normal" font-weight="normal" text-decoration="none" x="393" y="618"></text></g></g><g transform="translate(-25,-11) scale(1,1)"><g><path fill="none" stroke="none"/><text fill="#000000" stroke="none" font-family="Arial" font-size="13px" font-style="normal" font-weight="normal" text-decoration="none" x="393" y="636">N</text></g></g><g transform="translate(-25,-11) scale(1,1)"><g><path fill="none" stroke="none"/><text fill="#000000" stroke="none" font-family="Arial" font-size="13px" font-style="normal" font-weight="normal" text-decoration="none" x="421.05908203125" y="634">message</text></g></g><g transform="translate(-25,-11) scale(1,1)"><g><path fill="none" stroke="none"/><text fill="#000000" stroke="none" font-family="Arial" font-size="13px" font-style="normal" font-weight="normal" text-decoration="none" x="500.45166015625" y="636">TEXT</text></g></g><g transform="translate(-25,-11) scale(1,1)"><g><path fill="none" stroke="none"/><text fill="#000000" stroke="none" font-family="Arial" font-size="13px" font-style="normal" font-weight="normal" text-decoration="none" x="393" y="633"></text></g></g><g transform="translate(-25,-11) scale(1,1)"><g><path fill="none" stroke="none"/><text fill="#000000" stroke="none" font-family="Arial" font-size="13px" font-style="normal" font-weight="normal" text-decoration="none" x="393" y="651">FK</text></g></g><g transform="translate(-25,-11) scale(1,1)"><g><path fill="none" stroke="none"/><text fill="#000000" stroke="none" font-family="Arial" font-size="13px" font-style="normal" font-weight="normal" text-decoration="none" x="421.05908203125" y="651">id_task</text></g></g><g transform="translate(-25,-11) scale(1,1)"><g><path fill="none" stroke="none"/><text fill="#000000" stroke="none" font-family="Arial" font-size="13px" font-style="normal" font-weight="normal" text-decoration="none" x="500.45166015625" y="651">VARCHAR(32)</text></g></g><g transform="translate(-25,-11) scale(1,1)"><g><path fill="none" stroke="none"/><text fill="#000000" stroke="none" font-family="Arial" font-size="13px" font-style="normal" font-weight="normal" text-decoration="none" x="393" y="648"></text></g></g><g transform="translate(-25,-11) scale(1,1)"><path fill="none" stroke="#000000" d="M 499 494 L 499 554" stroke-miterlimit="10"/></g><g transform="translate(-25,-11) scale(1,1)"><path fill="none" stroke="#000000" d="M 499 540 L 492 554" stroke-miterlimit="10"/></g><g transform="translate(-25,-11) scale(1,1)"><path fill="none" stroke="#000000" d="M 499 540 L 506 554" stroke-miterlimit="10"/></g><g transform="translate(-25,-11) scale(1,1)"><path fill="#FFFFFF" stroke="none" d="M 492 532 C 492 528.1340064 495.1340064 525 499 525 C 502.8659936 525 506 528.1340064 506 532 C 506 535.8659936 502.8659936 539 499 539 C 495.1340064 539 492 535.8659936 492 532 Z"/></g><g transform="translate(-25,-11) scale(1,1)"><path fill="none" stroke="#000000" d="M 492 532 C 492 528.1340064 495.1340064 525 499 525 C 502.8659936 525 506 528.1340064 506 532 C 506 535.8659936 502.8659936 539 499 539 C 495.1340064 539 492 535.8659936 492 532 Z" stroke-miterlimit="10"/></g><g transform="translate(-25,-11) scale(1,1)"><path fill="none" stroke="#000000" d="M 506 501 L 492 501" stroke-miterlimit="10"/></g><g transform="translate(-25,-11) scale(1,1)"><path fill="none" stroke="#000000" d="M 506 508 L 492 508" stroke-miterlimit="10"/></g><g transform="translate(-25,-11) scale(1,1)"><g><path fill="none" stroke="none"/><text fill="#000000" stroke="none" font-family="Arial" font-size="13px" font-style="normal" font-weight="normal" text-decoration="none" x="513.5" y="519"></text></g></g><g transform="translate(-25,-11) scale(1,1)"><g><path fill="none" stroke="none"/><text fill="#000000" stroke="none" font-family="Arial" font-size="13px" font-style="normal" font-weight="normal" text-decoration="none" x="513.5" y="528"></text></g></g><g transform="translate(-25,-11) scale(1,1)"><path fill="#ffffff" stroke="none" d="M 729 494 L 957 494 L 967 504 L 967 566 L 729 566 L 729 494"/></g><g transform="translate(-25,-11) scale(1,1)"><path fill="none" stroke="#707070" d="M 729 494 L 957 494 L 967 504 L 967 566 L 729 566 L 729 494 L 729 494" stroke-miterlimit="10"/></g><g transform="translate(-25,-11) scale(1,1)"><path fill="none" stroke="#707070" d="M 957 494 L 957 504 L 967 504 L 957 494" stroke-miterlimit="10"/></g><g transform="translate(-25,-11) scale(1,1)"><g><path fill="none" stroke="none"/><text fill="#8e8e8e" stroke="none" font-family="Arial" font-size="13px" font-style="normal" font-weight="normal" text-decoration="none" x="734" y="508">script - task is effectively a 1-0..1</text><text fill="#8e8e8e" stroke="none" font-family="Arial" font-size="13px" font-style="normal" font-weight="normal" text-decoration="none" x="734" y="521">relation, but it is not coded in the</text><text fill="#8e8e8e" stroke="none" font-family="Arial" font-size="13px" font-style="normal" font-weight="normal" text-decoration="none" x="734" y="534">database. In Java Hibernate use:</text></g></g><g transform="translate(-25,-11) scale(1,1)"><g><path fill="none" stroke="none"/><text fill="#8e8e8e" stroke="none" font-family="Arial" font-size="13px" font-style="normal" font-weight="normal" text-decoration="none" x="734" y="549">@OneToOne(optional=true)</text></g></g><g transform="translate(-25,-11) scale(1,1)"><path fill="none" stroke="#000000" d="M 740 648 L 740 648" stroke-miterlimit="10"/></g><g transform="translate(-25,-11) scale(1,1)"><path fill="none" stroke="#000000" d="M 659 356 L 726 356" stroke-miterlimit="10" stroke-dasharray="6,4"/></g><g transform="translate(-25,-11) scale(1,1)"><path fill="none" stroke="#000000" d="M 728 549 L 692 549 L 692 357" stroke-miterlimit="10" stroke-dasharray="3"/></g></g></svg>