<svg version="1.1" xmlns="http://www.w3.org/2000/svg" xmlns:xlink="http://www.w3.org/1999/xlink" width="1955" height="998"><defs/><g><g><rect fill="#ffffff" stroke="none" x="52" y="400" width="21" height="184" transform="matrix(1 0 0 1 -38 -6)"/></g><g><path fill="none" stroke="#dddddd" paint-order="fill stroke markers" d=" M 14 394 L 35 394 L 35 578 L 14 578 L 14 394 Z Z" stroke-miterlimit="10" stroke-width="2" stroke-dasharray=""/></g><g><path fill="none" stroke="#dddddd" paint-order="fill stroke markers" d=" M 1788 394 L 14 394 L 14 578 L 1788 578" stroke-miterlimit="10" stroke-width="2" stroke-dasharray=""/></g><g><g><path fill="none" stroke="none"/><text fill="#000000" stroke="none" font-family="Arial" font-size="13px" font-style="normal" font-weight="normal" text-decoration="undefined" x="0" y="0" text-anchor="middle" dominant-baseline="text-before-edge" transform="matrix(6.123233995736766e-17 -1 1 6.123233995736766e-17 18 486)">Code Guard</text></g></g><g><rect fill="#ffffff" stroke="none" x="50" y="800" width="21" height="194" transform="matrix(1 0 0 1 -38 -6)"/></g><g><path fill="none" stroke="#cccccc" paint-order="fill stroke markers" d=" M 12 794 L 33 794 L 33 988 L 12 988 L 12 794 Z Z" stroke-miterlimit="10" stroke-width="2" stroke-dasharray=""/></g><g><path fill="none" stroke="#cccccc" paint-order="fill stroke markers" d=" M 1782 794 L 12 794 L 12 988 L 1782 988" stroke-miterlimit="10" stroke-width="2" stroke-dasharray=""/></g><g><g><path fill="none" stroke="none"/><text fill="#000000" stroke="none" font-family="Arial" font-size="13px" font-style="normal" font-weight="normal" text-decoration="undefined" x="0" y="0" text-anchor="middle" dominant-baseline="text-before-edge" transform="matrix(6.123233995736766e-17 -1 1 6.123233995736766e-17 16 891)">TaskRunner</text></g></g><g><rect fill="#ffffff" stroke="none" x="52" y="198" width="21" height="188.0908203125" transform="matrix(1 0 0 1 -38 -6)"/></g><g><path fill="none" stroke="#dddddd" paint-order="fill stroke markers" d=" M 14 192 L 35 192 L 35 380.0908203125 L 14 380.0908203125 L 14 192 Z Z" stroke-miterlimit="10" stroke-width="2" stroke-dasharray=""/></g><g><path fill="none" stroke="#dddddd" paint-order="fill stroke markers" d=" M 1792 192 L 14 192 L 14 380.0908203125 L 1792 380.0908203125" stroke-miterlimit="10" stroke-width="2" stroke-dasharray=""/></g><g><g><path fill="none" stroke="none"/><text fill="#000000" stroke="none" font-family="Arial" font-size="13px" font-style="normal" font-weight="normal" text-decoration="undefined" x="0" y="0" text-anchor="middle" dominant-baseline="text-before-edge" transform="matrix(6.123233995736766e-17 -1 1 6.123233995736766e-17 18 286.04541015625)">DB Service</text></g></g><g><path fill="#C0C0C0" stroke="none" paint-order="stroke fill markers" d=" M 121 155 C 121 149.477152 125.47715199999999 145 131 145 C 136.522848 145 141 149.477152 141 155 C 141 160.522848 136.522848 165 131 165 C 125.47715199999999 165 121 160.522848 121 155 Z" fill-opacity="0.2"/></g><g><path fill="#000000" stroke="none" paint-order="stroke fill markers" d=" M 114 148 C 114 142.477152 118.47715199999999 138 124 138 C 129.522848 138 134 142.477152 134 148 C 134 153.522848 129.522848 158 124 158 C 118.47715199999999 158 114 153.522848 114 148 Z"/></g><g><path fill="#C0C0C0" stroke="none" paint-order="stroke fill markers" d=" M 1926 170 C 1926 162.8202976 1931.8202976 157 1939 157 C 1946.1797024 157 1952 162.8202976 1952 170 C 1952 177.1797024 1946.1797024 183 1939 183 C 1931.8202976 183 1926 177.1797024 1926 170 Z" fill-opacity="0.2"/></g><g><path fill="none" stroke="#000000" paint-order="fill stroke markers" d=" M 1919 163 C 1919 155.8202976 1924.8202976 150 1932 150 C 1939.1797024 150 1945 155.8202976 1945 163 C 1945 170.1797024 1939.1797024 176 1932 176 C 1924.8202976 176 1919 170.1797024 1919 163 Z" stroke-miterlimit="10" stroke-dasharray=""/></g><g><path fill="#000000" stroke="none" paint-order="stroke fill markers" d=" M 1924 163 C 1924 158.5817216 1927.5817216 155 1932 155 C 1936.4182784 155 1940 158.5817216 1940 163 C 1940 167.4182784 1936.4182784 171 1932 171 C 1927.5817216 171 1924 167.4182784 1924 163 Z"/></g><g><rect fill="#ffffff" stroke="none" x="48" y="16" width="841" height="65" transform="matrix(1 0 0 1 -38 -6)"/></g><g><path fill="none" stroke="#000000" paint-order="fill stroke markers" d=" M 10 10 L 851 10 L 851 75 L 10 75 L 10 10 Z Z" stroke-miterlimit="10" stroke-dasharray=""/></g><g><g><path fill="none" stroke="none"/><text fill="#000000" stroke="none" font-family="Arial" font-size="13px" font-style="normal" font-weight="normal" text-decoration="undefined" x="53" y="21" text-anchor="start" dominant-baseline="text-before-edge" transform="matrix(1 0 0 1 -38 -6)">OAPEN MEMO Project</text></g></g><g><g><path fill="none" stroke="none"/><text fill="#000000" stroke="none" font-family="Arial" font-size="13px" font-style="normal" font-weight="normal" text-decoration="undefined" x="53" y="36" text-anchor="start" dominant-baseline="text-before-edge" transform="matrix(1 0 0 1 -38 -6)">Activity Diagram: Task Runner Service</text></g></g><g><g><path fill="none" stroke="none"/><text fill="#000000" stroke="none" font-family="Arial" font-size="13px" font-style="normal" font-weight="normal" text-decoration="undefined" x="53" y="51" text-anchor="start" dominant-baseline="text-before-edge" transform="matrix(1 0 0 1 -38 -6)">Version 20240116-01</text></g></g><g><path fill="#C0C0C0" stroke="none" paint-order="stroke fill markers" d=" M 428 242 L 543.71533203125 242 Q 553.71533203125 242 553.71533203125 252 L 553.71533203125 273 Q 553.71533203125 283 543.71533203125 283 L 428 283 Q 418 283 418 273 L 418 252 Q 418 242 428 242 Z" fill-opacity="0.2"/></g><g><path fill="#ffffff" stroke="none" paint-order="stroke fill markers" d=" M 421 235 L 536.71533203125 235 Q 546.71533203125 235 546.71533203125 245 L 546.71533203125 266 Q 546.71533203125 276 536.71533203125 276 L 421 276 Q 411 276 411 266 L 411 245 Q 411 235 421 235 Z"/></g><g><path fill="none" stroke="#000000" paint-order="fill stroke markers" d=" M 421 235 L 536.71533203125 235 Q 546.71533203125 235 546.71533203125 245 L 546.71533203125 266 Q 546.71533203125 276 536.71533203125 276 L 421 276 Q 411 276 411 266 L 411 245 Q 411 235 421 235 Z" stroke-miterlimit="10" stroke-dasharray=""/></g><g><g><path fill="none" stroke="none"/><text fill="#000000" stroke="none" font-family="Arial" font-size="13px" font-style="normal" font-weight="bold" text-decoration="undefined" x="517.357666015625" y="254.5" text-anchor="middle" dominant-baseline="central" transform="matrix(1 0 0 1 -38 -6)">Get Task</text></g></g><g><rect fill="#ffffff" stroke="none" x="50" y="594" width="21" height="190" transform="matrix(1 0 0 1 -38 -6)"/></g><g><path fill="none" stroke="#dddddd" paint-order="fill stroke markers" d=" M 12 588 L 33 588 L 33 778 L 12 778 L 12 588 Z Z" stroke-miterlimit="10" stroke-width="2" stroke-dasharray=""/></g><g><path fill="none" stroke="#dddddd" paint-order="fill stroke markers" d=" M 1782 588 L 12 588 L 12 778 L 1782 778" stroke-miterlimit="10" stroke-width="2" stroke-dasharray=""/></g><g><g><path fill="none" stroke="none"/><text fill="#000000" stroke="none" font-family="Arial" font-size="13px" font-style="normal" font-weight="normal" text-decoration="undefined" x="0" y="0" text-anchor="middle" dominant-baseline="text-before-edge" transform="matrix(6.123233995736766e-17 -1 1 6.123233995736766e-17 16 683)">Code Parser</text></g></g><g><path fill="none" stroke="#000000" paint-order="fill stroke markers" d=" M 470 276 L 470 427" stroke-miterlimit="10" stroke-dasharray=""/></g><g><path fill="none" stroke="#000000" paint-order="fill stroke markers" d=" M 465.790482243984 416.83732514237585 L 470 427 L 474.209517756016 416.83732514237585" stroke-miterlimit="10" stroke-dasharray=""/></g><g><path fill="none" stroke="#000000" paint-order="fill stroke markers" d=" M 176 884 L 227 884 L 227 253 L 411 253" stroke-miterlimit="10" stroke-dasharray=""/></g><g><path fill="none" stroke="#000000" paint-order="fill stroke markers" d=" M 400.83732514237585 257.209517756016 L 411 253 L 400.83732514237585 248.790482243984" stroke-miterlimit="10" stroke-dasharray=""/></g><g><rect fill="#ffffff" stroke="none" x="277" y="875" width="21.68359375" height="13" transform="matrix(1 0 0 1 -38 -6)"/></g><g><g><path fill="none" stroke="none"/><text fill="#000000" stroke="none" font-family="Arial" font-size="13px" font-style="normal" font-weight="normal" text-decoration="undefined" x="287.841796875" y="881.5" text-anchor="middle" dominant-baseline="central" transform="matrix(1 0 0 1 -38 -6)">0..n</text></g></g><g><path fill="#C0C0C0" stroke="none" paint-order="stroke fill markers" d=" M 361 434 L 596.654296875 434 Q 606.654296875 434 606.654296875 444 L 606.654296875 465 Q 606.654296875 475 596.654296875 475 L 361 475 Q 351 475 351 465 L 351 444 Q 351 434 361 434 Z" fill-opacity="0.2"/></g><g><path fill="#ffffff" stroke="none" paint-order="stroke fill markers" d=" M 354 427 L 589.654296875 427 Q 599.654296875 427 599.654296875 437 L 599.654296875 458 Q 599.654296875 468 589.654296875 468 L 354 468 Q 344 468 344 458 L 344 437 Q 344 427 354 427 Z"/></g><g><path fill="none" stroke="#000000" paint-order="fill stroke markers" d=" M 354 427 L 589.654296875 427 Q 599.654296875 427 599.654296875 437 L 599.654296875 458 Q 599.654296875 468 589.654296875 468 L 354 468 Q 344 468 344 458 L 344 437 Q 344 427 354 427 Z" stroke-miterlimit="10" stroke-dasharray=""/></g><g><g><path fill="none" stroke="none"/><text fill="#000000" stroke="none" font-family="Arial" font-size="13px" font-style="normal" font-weight="bold" text-decoration="undefined" x="510.3271484375" y="446.5" text-anchor="middle" dominant-baseline="central" transform="matrix(1 0 0 1 -38 -6)">Review Script</text></g></g><g><path fill="#C0C0C0" stroke="none" paint-order="stroke fill markers" d=" M 463 522.5 L 474.5 513 L 486 522.5 L 474.5 532 L 463 522.5" fill-opacity="0.2"/></g><g><path fill="#ffffff" stroke="none" paint-order="stroke fill markers" d=" M 456 515.5 L 467.5 506 L 479 515.5 L 467.5 525 L 456 515.5"/></g><g><path fill="none" stroke="#000000" paint-order="fill stroke markers" d=" M 456 515.5 L 467.5 506 L 479 515.5 L 467.5 525 L 456 515.5 L 456 515.5" stroke-miterlimit="10" stroke-dasharray=""/></g><g><path fill="none" stroke="#000000" paint-order="fill stroke markers" d=" M 470 468 L 470 506" stroke-miterlimit="10" stroke-dasharray=""/></g><g><path fill="none" stroke="#000000" paint-order="fill stroke markers" d=" M 465.790482243984 495.83732514237585 L 470 506 L 474.209517756016 495.83732514237585" stroke-miterlimit="10" stroke-dasharray=""/></g><g><path fill="#C0C0C0" stroke="none" paint-order="stroke fill markers" d=" M 563 677 L 692.45166015625 677 Q 702.45166015625 677 702.45166015625 687 L 702.45166015625 708 Q 702.45166015625 718 692.45166015625 718 L 563 718 Q 553 718 553 708 L 553 687 Q 553 677 563 677 Z" fill-opacity="0.2"/></g><g><path fill="#ffffff" stroke="none" paint-order="stroke fill markers" d=" M 556 670 L 685.45166015625 670 Q 695.45166015625 670 695.45166015625 680 L 695.45166015625 701 Q 695.45166015625 711 685.45166015625 711 L 556 711 Q 546 711 546 701 L 546 680 Q 546 670 556 670 Z"/></g><g><path fill="none" stroke="#000000" paint-order="fill stroke markers" d=" M 556 670 L 685.45166015625 670 Q 695.45166015625 670 695.45166015625 680 L 695.45166015625 701 Q 695.45166015625 711 685.45166015625 711 L 556 711 Q 546 711 546 701 L 546 680 Q 546 670 556 670 Z" stroke-miterlimit="10" stroke-dasharray=""/></g><g><g><path fill="none" stroke="none"/><text fill="#000000" stroke="none" font-family="Arial" font-size="13px" font-style="normal" font-weight="bold" text-decoration="undefined" x="659.225830078125" y="689.5" text-anchor="middle" dominant-baseline="central" transform="matrix(1 0 0 1 -38 -6)">Parse Library Includes</text></g></g><g><path fill="none" stroke="#000000" paint-order="fill stroke markers" d=" M 479 514 L 690 514 L 690 276" stroke-miterlimit="10" stroke-dasharray=""/></g><g><path fill="none" stroke="#000000" paint-order="fill stroke markers" d=" M 694.209517756016 286.16267485762415 L 690 276 L 685.790482243984 286.16267485762415" stroke-miterlimit="10" stroke-dasharray=""/></g><g><rect fill="#ffffff" stroke="none" x="699" y="529" width="31.7890625" height="13" transform="matrix(1 0 0 1 -38 -6)"/></g><g><g><path fill="none" stroke="none"/><text fill="#000000" stroke="none" font-family="Arial" font-size="13px" font-style="normal" font-weight="normal" text-decoration="undefined" x="714.89453125" y="535.5" text-anchor="middle" dominant-baseline="central" transform="matrix(1 0 0 1 -38 -6)">reject</text></g></g><g><path fill="none" stroke="#000000" paint-order="fill stroke markers" d=" M 456 516 L 358 516 L 358 690 L 546 690" stroke-miterlimit="10" stroke-dasharray=""/></g><g><path fill="none" stroke="#000000" paint-order="fill stroke markers" d=" M 535.8373251423759 694.209517756016 L 546 690 L 535.8373251423758 685.790482243984" stroke-miterlimit="10" stroke-dasharray=""/></g><g><rect fill="#ffffff" stroke="none" x="402" y="529" width="38.3017578125" height="13" transform="matrix(1 0 0 1 -38 -6)"/></g><g><g><path fill="none" stroke="none"/><text fill="#000000" stroke="none" font-family="Arial" font-size="13px" font-style="normal" font-weight="normal" text-decoration="undefined" x="421.15087890625" y="535.5" text-anchor="middle" dominant-baseline="central" transform="matrix(1 0 0 1 -38 -6)">accept</text></g></g><g><path fill="none" stroke="#000000" paint-order="fill stroke markers" d=" M 695 690 L 789 690 L 789 251 L 852 251" stroke-miterlimit="10" stroke-dasharray=""/></g><g><path fill="none" stroke="#000000" paint-order="fill stroke markers" d=" M 841.8373251423759 255.209517756016 L 852 251 L 841.8373251423758 246.790482243984" stroke-miterlimit="10" stroke-dasharray=""/></g><g><path fill="#C0C0C0" stroke="none" paint-order="stroke fill markers" d=" M 869 242 L 956 242 Q 966 242 966 252 L 966 273 Q 966 283 956 283 L 869 283 Q 859 283 859 273 L 859 252 Q 859 242 869 242 Z" fill-opacity="0.2"/></g><g><path fill="#ffffff" stroke="none" paint-order="stroke fill markers" d=" M 862 235 L 949 235 Q 959 235 959 245 L 959 266 Q 959 276 949 276 L 862 276 Q 852 276 852 266 L 852 245 Q 852 235 862 235 Z"/></g><g><path fill="none" stroke="#000000" paint-order="fill stroke markers" d=" M 862 235 L 949 235 Q 959 235 959 245 L 959 266 Q 959 276 949 276 L 862 276 Q 852 276 852 266 L 852 245 Q 852 235 862 235 Z" stroke-miterlimit="10" stroke-dasharray=""/></g><g><g><path fill="none" stroke="none"/><text fill="#000000" stroke="none" font-family="Arial" font-size="13px" font-style="normal" font-weight="bold" text-decoration="undefined" x="944" y="254.5" text-anchor="middle" dominant-baseline="central" transform="matrix(1 0 0 1 -38 -6)">Get Includes</text></g></g><g><path fill="#C0C0C0" stroke="none" paint-order="stroke fill markers" d=" M 889 434 L 1054 434 Q 1064 434 1064 444 L 1064 465 Q 1064 475 1054 475 L 889 475 Q 879 475 879 465 L 879 444 Q 879 434 889 434 Z" fill-opacity="0.2"/></g><g><path fill="#ffffff" stroke="none" paint-order="stroke fill markers" d=" M 882 427 L 1047 427 Q 1057 427 1057 437 L 1057 458 Q 1057 468 1047 468 L 882 468 Q 872 468 872 458 L 872 437 Q 872 427 882 427 Z"/></g><g><path fill="none" stroke="#000000" paint-order="fill stroke markers" d=" M 882 427 L 1047 427 Q 1057 427 1057 437 L 1057 458 Q 1057 468 1047 468 L 882 468 Q 872 468 872 458 L 872 437 Q 872 427 882 427 Z" stroke-miterlimit="10" stroke-dasharray=""/></g><g><g><path fill="none" stroke="none"/><text fill="#000000" stroke="none" font-family="Arial" font-size="13px" font-style="normal" font-weight="bold" text-decoration="undefined" x="1003" y="446.5" text-anchor="middle" dominant-baseline="central" transform="matrix(1 0 0 1 -38 -6)">Review Script</text></g></g><g><path fill="none" stroke="#000000" paint-order="fill stroke markers" d=" M 959 250 L 1004 250 L 1004 427" stroke-miterlimit="10" stroke-dasharray=""/></g><g><path fill="none" stroke="#000000" paint-order="fill stroke markers" d=" M 999.7904822439841 416.83732514237585 L 1004 427 L 1008.2095177560159 416.83732514237585" stroke-miterlimit="10" stroke-dasharray=""/></g><g><rect fill="#ffffff" stroke="none" x="1014" y="284" width="21.68359375" height="13" transform="matrix(1 0 0 1 -38 -6)"/></g><g><g><path fill="none" stroke="none"/><text fill="#000000" stroke="none" font-family="Arial" font-size="13px" font-style="normal" font-weight="normal" text-decoration="undefined" x="1024.841796875" y="290.5" text-anchor="middle" dominant-baseline="central" transform="matrix(1 0 0 1 -38 -6)">0..n</text></g></g><g><path fill="#C0C0C0" stroke="none" paint-order="stroke fill markers" d=" M 1112 449.5 L 1123.5 440 L 1135 449.5 L 1123.5 459 L 1112 449.5" fill-opacity="0.2"/></g><g><path fill="#ffffff" stroke="none" paint-order="stroke fill markers" d=" M 1105 442.5 L 1116.5 433 L 1128 442.5 L 1116.5 452 L 1105 442.5"/></g><g><path fill="none" stroke="#000000" paint-order="fill stroke markers" d=" M 1105 442.5 L 1116.5 433 L 1128 442.5 L 1116.5 452 L 1105 442.5 L 1105 442.5" stroke-miterlimit="10" stroke-dasharray=""/></g><g><path fill="none" stroke="#000000" paint-order="fill stroke markers" d=" M 1057 442 L 1105 442" stroke-miterlimit="10" stroke-dasharray=""/></g><g><path fill="none" stroke="#000000" paint-order="fill stroke markers" d=" M 1094.837325142376 446.209517756016 L 1105 442 L 1094.837325142376 437.790482243984" stroke-miterlimit="10" stroke-dasharray=""/></g><g><path fill="none" stroke="#000000" paint-order="fill stroke markers" d=" M 1128 442 L 1268 442 L 1268 276" stroke-miterlimit="10" stroke-dasharray=""/></g><g><path fill="none" stroke="#000000" paint-order="fill stroke markers" d=" M 1272.2095177560159 286.16267485762415 L 1268 276 L 1263.7904822439841 286.16267485762415" stroke-miterlimit="10" stroke-dasharray=""/></g><g><rect fill="#ffffff" stroke="none" x="1253" y="429" width="38.3017578125" height="13" transform="matrix(1 0 0 1 -38 -6)"/></g><g><g><path fill="none" stroke="none"/><text fill="#000000" stroke="none" font-family="Arial" font-size="13px" font-style="normal" font-weight="normal" text-decoration="undefined" x="1272.15087890625" y="435.5" text-anchor="middle" dominant-baseline="central" transform="matrix(1 0 0 1 -38 -6)">accept</text></g></g><g><path fill="none" stroke="#000000" paint-order="fill stroke markers" d=" M 1321 256 L 1348 256 L 1348 671" stroke-miterlimit="10" stroke-dasharray=""/></g><g><path fill="none" stroke="#000000" paint-order="fill stroke markers" d=" M 1343.7904822439841 660.8373251423759 L 1348 671 L 1352.2095177560159 660.8373251423759" stroke-miterlimit="10" stroke-dasharray=""/></g><g><path fill="none" stroke="#000000" paint-order="fill stroke markers" d=" M 124 158 L 124 864" stroke-miterlimit="10" stroke-dasharray=""/></g><g><path fill="none" stroke="#000000" paint-order="fill stroke markers" d=" M 119.790482243984 853.8373251423759 L 124 864 L 128.209517756016 853.8373251423759" stroke-miterlimit="10" stroke-dasharray=""/></g><g><path fill="#C0C0C0" stroke="none" paint-order="stroke fill markers" d=" M 650 242 L 737 242 Q 747 242 747 252 L 747 273 Q 747 283 737 283 L 650 283 Q 640 283 640 273 L 640 252 Q 640 242 650 242 Z" fill-opacity="0.2"/></g><g><path fill="#ffffff" stroke="none" paint-order="stroke fill markers" d=" M 643 235 L 730 235 Q 740 235 740 245 L 740 266 Q 740 276 730 276 L 643 276 Q 633 276 633 266 L 633 245 Q 633 235 643 235 Z"/></g><g><path fill="none" stroke="#000000" paint-order="fill stroke markers" d=" M 643 235 L 730 235 Q 740 235 740 245 L 740 266 Q 740 276 730 276 L 643 276 Q 633 276 633 266 L 633 245 Q 633 235 643 235 Z" stroke-miterlimit="10" stroke-dasharray=""/></g><g><g><path fill="none" stroke="none"/><text fill="#000000" stroke="none" font-family="Arial" font-size="13px" font-style="normal" font-weight="bold" text-decoration="undefined" x="725" y="254.5" text-anchor="middle" dominant-baseline="central" transform="matrix(1 0 0 1 -38 -6)">Log Failure</text></g></g><g><path fill="#C0C0C0" stroke="none" paint-order="stroke fill markers" d=" M 1231 242 L 1318 242 Q 1328 242 1328 252 L 1328 273 Q 1328 283 1318 283 L 1231 283 Q 1221 283 1221 273 L 1221 252 Q 1221 242 1231 242 Z" fill-opacity="0.2"/></g><g><path fill="#ffffff" stroke="none" paint-order="stroke fill markers" d=" M 1224 235 L 1311 235 Q 1321 235 1321 245 L 1321 266 Q 1321 276 1311 276 L 1224 276 Q 1214 276 1214 266 L 1214 245 Q 1214 235 1224 235 Z"/></g><g><path fill="none" stroke="#000000" paint-order="fill stroke markers" d=" M 1224 235 L 1311 235 Q 1321 235 1321 245 L 1321 266 Q 1321 276 1311 276 L 1224 276 Q 1214 276 1214 266 L 1214 245 Q 1214 235 1224 235 Z" stroke-miterlimit="10" stroke-dasharray=""/></g><g><g><path fill="none" stroke="none"/><text fill="#000000" stroke="none" font-family="Arial" font-size="13px" font-style="normal" font-weight="bold" text-decoration="undefined" x="1306" y="254.5" text-anchor="middle" dominant-baseline="central" transform="matrix(1 0 0 1 -38 -6)">Get Query</text></g></g><g><path fill="#C0C0C0" stroke="none" paint-order="stroke fill markers" d=" M 1076 242 L 1163 242 Q 1173 242 1173 252 L 1173 273 Q 1173 283 1163 283 L 1076 283 Q 1066 283 1066 273 L 1066 252 Q 1066 242 1076 242 Z" fill-opacity="0.2"/></g><g><path fill="#ffffff" stroke="none" paint-order="stroke fill markers" d=" M 1069 235 L 1156 235 Q 1166 235 1166 245 L 1166 266 Q 1166 276 1156 276 L 1069 276 Q 1059 276 1059 266 L 1059 245 Q 1059 235 1069 235 Z"/></g><g><path fill="none" stroke="#000000" paint-order="fill stroke markers" d=" M 1069 235 L 1156 235 Q 1166 235 1166 245 L 1166 266 Q 1166 276 1156 276 L 1069 276 Q 1059 276 1059 266 L 1059 245 Q 1059 235 1069 235 Z" stroke-miterlimit="10" stroke-dasharray=""/></g><g><g><path fill="none" stroke="none"/><text fill="#000000" stroke="none" font-family="Arial" font-size="13px" font-style="normal" font-weight="bold" text-decoration="undefined" x="1151" y="254.5" text-anchor="middle" dominant-baseline="central" transform="matrix(1 0 0 1 -38 -6)">Log Failure</text></g></g><g><path fill="none" stroke="#000000" paint-order="fill stroke markers" d=" M 1114 433 L 1114 276" stroke-miterlimit="10" stroke-dasharray=""/></g><g><path fill="none" stroke="#000000" paint-order="fill stroke markers" d=" M 1118.2095177560159 286.16267485762415 L 1114 276 L 1109.7904822439841 286.16267485762415" stroke-miterlimit="10" stroke-dasharray=""/></g><g><rect fill="#ffffff" stroke="none" x="1159" y="413" width="31.7890625" height="13" transform="matrix(1 0 0 1 -38 -6)"/></g><g><g><path fill="none" stroke="none"/><text fill="#000000" stroke="none" font-family="Arial" font-size="13px" font-style="normal" font-weight="normal" text-decoration="undefined" x="1174.89453125" y="419.5" text-anchor="middle" dominant-baseline="central" transform="matrix(1 0 0 1 -38 -6)">reject</text></g></g><g><path fill="none" stroke="#000000" paint-order="fill stroke markers" d=" M 692 235 L 692 164 L 1919 164" stroke-miterlimit="10" stroke-dasharray=""/></g><g><path fill="none" stroke="#000000" paint-order="fill stroke markers" d=" M 1908.837325142376 168.209517756016 L 1919 164 L 1908.837325142376 159.790482243984" stroke-miterlimit="10" stroke-dasharray=""/></g><g><path fill="none" stroke="#000000" paint-order="fill stroke markers" d=" M 1115 235 L 1115 164 L 1919 164" stroke-miterlimit="10" stroke-dasharray=""/></g><g><path fill="none" stroke="#000000" paint-order="fill stroke markers" d=" M 1908.837325142376 168.209517756016 L 1919 164 L 1908.837325142376 159.790482243984" stroke-miterlimit="10" stroke-dasharray=""/></g><g><path fill="#C0C0C0" stroke="none" paint-order="stroke fill markers" d=" M 1473 242 L 1560 242 Q 1570 242 1570 252 L 1570 273 Q 1570 283 1560 283 L 1473 283 Q 1463 283 1463 273 L 1463 252 Q 1463 242 1473 242 Z" fill-opacity="0.2"/></g><g><path fill="#ffffff" stroke="none" paint-order="stroke fill markers" d=" M 1466 235 L 1553 235 Q 1563 235 1563 245 L 1563 266 Q 1563 276 1553 276 L 1466 276 Q 1456 276 1456 266 L 1456 245 Q 1456 235 1466 235 Z"/></g><g><path fill="none" stroke="#000000" paint-order="fill stroke markers" d=" M 1466 235 L 1553 235 Q 1563 235 1563 245 L 1563 266 Q 1563 276 1553 276 L 1466 276 Q 1456 276 1456 266 L 1456 245 Q 1456 235 1466 235 Z" stroke-miterlimit="10" stroke-dasharray=""/></g><g><g><path fill="none" stroke="none"/><text fill="#000000" stroke="none" font-family="Arial" font-size="13px" font-style="normal" font-weight="bold" text-decoration="undefined" x="1548" y="254.5" text-anchor="middle" dominant-baseline="central" transform="matrix(1 0 0 1 -38 -6)">Log Failure</text></g></g><g><path fill="#C0C0C0" stroke="none" paint-order="stroke fill markers" d=" M 1662 242 L 1749 242 Q 1759 242 1759 252 L 1759 273 Q 1759 283 1749 283 L 1662 283 Q 1652 283 1652 273 L 1652 252 Q 1652 242 1662 242 Z" fill-opacity="0.2"/></g><g><path fill="#ffffff" stroke="none" paint-order="stroke fill markers" d=" M 1655 235 L 1742 235 Q 1752 235 1752 245 L 1752 266 Q 1752 276 1742 276 L 1655 276 Q 1645 276 1645 266 L 1645 245 Q 1645 235 1655 235 Z"/></g><g><path fill="none" stroke="#000000" paint-order="fill stroke markers" d=" M 1655 235 L 1742 235 Q 1752 235 1752 245 L 1752 266 Q 1752 276 1742 276 L 1655 276 Q 1645 276 1645 266 L 1645 245 Q 1645 235 1655 235 Z" stroke-miterlimit="10" stroke-dasharray=""/></g><g><g><path fill="none" stroke="none"/><text fill="#000000" stroke="none" font-family="Arial" font-size="13px" font-style="normal" font-weight="bold" text-decoration="undefined" x="1737" y="254.5" text-anchor="middle" dominant-baseline="central" transform="matrix(1 0 0 1 -38 -6)">Log Success</text></g></g><g><rect fill="#ffffff" stroke="none" x="1537" y="282" width="18" height="18" transform="matrix(1 0 0 1 -38 -6)"/></g><g><path fill="none" stroke="#000000" paint-order="fill stroke markers" d=" M 1499 276 L 1517 276 L 1517 294 L 1499 294 L 1499 276 Z Z" stroke-miterlimit="10" stroke-dasharray=""/></g><g><path fill="none" stroke="#000000" paint-order="fill stroke markers" d=" M 1508 292 L 1508 278" stroke-miterlimit="10" stroke-dasharray=""/></g><g><path fill="none" stroke="#000000" paint-order="fill stroke markers" d=" M 1508 278 L 1505 281" stroke-miterlimit="10" stroke-dasharray=""/></g><g><path fill="none" stroke="#000000" paint-order="fill stroke markers" d=" M 1508 278 L 1511 281" stroke-miterlimit="10" stroke-dasharray=""/></g><g><path fill="none" stroke="#000000" paint-order="fill stroke markers" d=" M 1454 875 L 1508 875 L 1508 294" stroke-miterlimit="10" stroke-dasharray=""/></g><g><path fill="none" stroke="#000000" paint-order="fill stroke markers" d=" M 1512.2095177560159 304.16267485762415 L 1508 294 L 1503.7904822439841 304.16267485762415" stroke-miterlimit="10" stroke-dasharray=""/></g><g><rect fill="#ffffff" stroke="none" x="1517" y="884" width="64.6826171875" height="13" transform="matrix(1 0 0 1 -38 -6)"/></g><g><g><path fill="none" stroke="none"/><text fill="#000000" stroke="none" font-family="Arial" font-size="13px" font-style="normal" font-weight="normal" text-decoration="undefined" x="1549.34130859375" y="890.5" text-anchor="middle" dominant-baseline="central" transform="matrix(1 0 0 1 -38 -6)">+exception</text></g></g><g><path fill="none" stroke="#000000" paint-order="fill stroke markers" d=" M 1518 824 L 1543 824" stroke-miterlimit="10" stroke-dasharray=""/></g><g><path fill="none" stroke="#000000" paint-order="fill stroke markers" d=" M 1543 824 L 1518 839" stroke-miterlimit="10" stroke-dasharray=""/></g><g><path fill="none" stroke="#000000" paint-order="fill stroke markers" d=" M 1518 839 L 1543 839" stroke-miterlimit="10" stroke-dasharray=""/></g><g><path fill="none" stroke="#000000" paint-order="fill stroke markers" d=" M 1543 839 L 1538 844" stroke-miterlimit="10" stroke-dasharray=""/></g><g><path fill="none" stroke="#000000" paint-order="fill stroke markers" d=" M 1543 839 L 1538 834" stroke-miterlimit="10" stroke-dasharray=""/></g><g><path fill="none" stroke="#000000" paint-order="fill stroke markers" d=" M 1349 896 L 1349 955 L 1693 955 L 1693 276" stroke-miterlimit="10" stroke-dasharray=""/></g><g><path fill="none" stroke="#000000" paint-order="fill stroke markers" d=" M 1697.2095177560159 286.16267485762415 L 1693 276 L 1688.7904822439841 286.16267485762415" stroke-miterlimit="10" stroke-dasharray=""/></g><g><rect fill="#ffffff" stroke="none" x="1393" y="940" width="46.9599609375" height="13" transform="matrix(1 0 0 1 -38 -6)"/></g><g><g><path fill="none" stroke="none"/><text fill="#000000" stroke="none" font-family="Arial" font-size="13px" font-style="normal" font-weight="normal" text-decoration="undefined" x="1416.47998046875" y="946.5" text-anchor="middle" dominant-baseline="central" transform="matrix(1 0 0 1 -38 -6)">success</text></g></g><g><path fill="none" stroke="#000000" paint-order="fill stroke markers" d=" M 1497 235 L 1497 166 L 1919 166" stroke-miterlimit="10" stroke-dasharray=""/></g><g><path fill="none" stroke="#000000" paint-order="fill stroke markers" d=" M 1908.837325142376 170.209517756016 L 1919 166 L 1908.837325142376 161.790482243984" stroke-miterlimit="10" stroke-dasharray=""/></g><g><path fill="none" stroke="#000000" paint-order="fill stroke markers" d=" M 1692 235 L 1692 163 L 1919 163" stroke-miterlimit="10" stroke-dasharray=""/></g><g><path fill="none" stroke="#000000" paint-order="fill stroke markers" d=" M 1908.837325142376 167.209517756016 L 1919 163 L 1908.837325142376 158.790482243984" stroke-miterlimit="10" stroke-dasharray=""/></g><g><path fill="none" stroke="#000000" paint-order="fill stroke markers" d=" M 1346 712 L 1346 855" stroke-miterlimit="10" stroke-dasharray=""/></g><g><path fill="none" stroke="#000000" paint-order="fill stroke markers" d=" M 1341.7904822439841 844.8373251423759 L 1346 855 L 1350.2095177560159 844.8373251423759" stroke-miterlimit="10" stroke-dasharray=""/></g><g><path fill="#C0C0C0" stroke="none" paint-order="stroke fill markers" d=" M 1281 678 L 1422 678 Q 1432 678 1432 688 L 1432 709 Q 1432 719 1422 719 L 1281 719 Q 1271 719 1271 709 L 1271 688 Q 1271 678 1281 678 Z" fill-opacity="0.2"/></g><g><path fill="#ffffff" stroke="none" paint-order="stroke fill markers" d=" M 1274 671 L 1415 671 Q 1425 671 1425 681 L 1425 702 Q 1425 712 1415 712 L 1274 712 Q 1264 712 1264 702 L 1264 681 Q 1264 671 1274 671 Z"/></g><g><path fill="none" stroke="#000000" paint-order="fill stroke markers" d=" M 1274 671 L 1415 671 Q 1425 671 1425 681 L 1425 702 Q 1425 712 1415 712 L 1274 712 Q 1264 712 1264 702 L 1264 681 Q 1264 671 1274 671 Z" stroke-miterlimit="10" stroke-dasharray=""/></g><g><g><path fill="none" stroke="none"/><text fill="#000000" stroke="none" font-family="Arial" font-size="13px" font-style="normal" font-weight="bold" text-decoration="undefined" x="1383" y="690.5" text-anchor="middle" dominant-baseline="central" transform="matrix(1 0 0 1 -38 -6)">Parse Globals</text></g></g><g><path fill="#C0C0C0" stroke="none" paint-order="stroke fill markers" d=" M 105 871 L 172.8095703125 871 Q 182.8095703125 871 182.8095703125 881 L 182.8095703125 902 Q 182.8095703125 912 172.8095703125 912 L 105 912 Q 95 912 95 902 L 95 881 Q 95 871 105 871 Z" fill-opacity="0.2"/></g><g><path fill="#ffffff" stroke="none" paint-order="stroke fill markers" d=" M 98 864 L 165.8095703125 864 Q 175.8095703125 864 175.8095703125 874 L 175.8095703125 895 Q 175.8095703125 905 165.8095703125 905 L 98 905 Q 88 905 88 895 L 88 874 Q 88 864 98 864 Z"/></g><g><path fill="none" stroke="#000000" paint-order="fill stroke markers" d=" M 98 864 L 165.8095703125 864 Q 175.8095703125 864 175.8095703125 874 L 175.8095703125 895 Q 175.8095703125 905 165.8095703125 905 L 98 905 Q 88 905 88 895 L 88 874 Q 88 864 98 864 Z" stroke-miterlimit="10" stroke-dasharray=""/></g><g><g><path fill="none" stroke="none"/><text fill="#000000" stroke="none" font-family="Arial" font-size="13px" font-style="normal" font-weight="bold" text-decoration="undefined" x="170.40478515625" y="883.5" text-anchor="middle" dominant-baseline="central" transform="matrix(1 0 0 1 -38 -6)">Select Tasks</text></g></g><g><path fill="#C0C0C0" stroke="none" paint-order="stroke fill markers" d=" M 1254 862 L 1451 862 Q 1461 862 1461 872 L 1461 893 Q 1461 903 1451 903 L 1254 903 Q 1244 903 1244 893 L 1244 872 Q 1244 862 1254 862 Z" fill-opacity="0.2"/></g><g><path fill="#ffffff" stroke="none" paint-order="stroke fill markers" d=" M 1247 855 L 1444 855 Q 1454 855 1454 865 L 1454 886 Q 1454 896 1444 896 L 1247 896 Q 1237 896 1237 886 L 1237 865 Q 1237 855 1247 855 Z"/></g><g><path fill="none" stroke="#000000" paint-order="fill stroke markers" d=" M 1247 855 L 1444 855 Q 1454 855 1454 865 L 1454 886 Q 1454 896 1444 896 L 1247 896 Q 1237 896 1237 886 L 1237 865 Q 1237 855 1247 855 Z" stroke-miterlimit="10" stroke-dasharray=""/></g><g><g><path fill="none" stroke="none"/><text fill="#000000" stroke="none" font-family="Arial" font-size="13px" font-style="normal" font-weight="bold" text-decoration="undefined" x="1384" y="874.5" text-anchor="middle" dominant-baseline="central" transform="matrix(1 0 0 1 -38 -6)">Run Script</text></g></g></g></svg>