<svg version="1.1" xmlns="http://www.w3.org/2000/svg" xmlns:xlink="http://www.w3.org/1999/xlink" width="1388" height="788"><defs/><g><g><path fill="#D8F2FF45" stroke="none" paint-order="stroke fill markers" d=" M 192 114 L 1172 114 Q 1178 114 1178 120 L 1178 772 Q 1178 778 1172 778 L 192 778 Q 186 778 186 772 L 186 120 Q 186 114 192 114 Z"/></g><g><path fill="none" stroke="#000000" paint-order="fill stroke markers" d=" M 192 114 L 1172 114 Q 1178 114 1178 120 L 1178 772 Q 1178 778 1172 778 L 192 778 Q 186 778 186 772 L 186 120 Q 186 114 192 114 Z" stroke-miterlimit="10" stroke-dasharray=""/></g><g><g><path fill="none" stroke="none"/><text fill="#000000" stroke="none" font-family="Arial" font-size="13px" font-style="normal" font-weight="bold" text-decoration="undefined" x="688" y="126.5" text-anchor="middle" dominant-baseline="central" transform="matrix(1 0 0 1 -6 2)">OAPEN MEMO System</text></g></g><g><g><path fill="none" stroke="none"/><text fill="#000000" stroke="none" font-family="Arial" font-size="13px" font-style="normal" font-weight="normal" text-decoration="undefined" x="688" y="141.5" text-anchor="middle" dominant-baseline="central" transform="matrix(1 0 0 1 -6 2)">[Software System]</text></g></g><g><g><path fill="none" stroke="none"/></g></g><g><path fill="#C0C0C0" stroke="none" paint-order="stroke fill markers" d=" M 263 193 L 395 193 Q 401 193 401 199 L 401 293 Q 401 299 395 299 L 263 299 Q 257 299 257 293 L 257 199 Q 257 193 263 193 Z" fill-opacity="0.2"/></g><g><path fill="#D8D8FF" stroke="none" paint-order="stroke fill markers" d=" M 256 186 L 388 186 Q 394 186 394 192 L 394 286 Q 394 292 388 292 L 256 292 Q 250 292 250 286 L 250 192 Q 250 186 256 186 Z"/></g><g><path fill="none" stroke="#000000" paint-order="fill stroke markers" d=" M 256 186 L 388 186 Q 394 186 394 192 L 394 286 Q 394 292 388 292 L 256 292 Q 250 292 250 286 L 250 192 Q 250 186 256 186 Z" stroke-miterlimit="10" stroke-dasharray=""/></g><g><g><path fill="none" stroke="none"/><text fill="#000000" stroke="none" font-family="Arial" font-size="13px" font-style="normal" font-weight="bold" text-decoration="undefined" x="328" y="198.5" text-anchor="middle" dominant-baseline="central" transform="matrix(1 0 0 1 -6 2)">Harvester Service</text></g></g><g><g><path fill="none" stroke="none"/><text fill="#000000" stroke="none" font-family="Arial" font-size="13px" font-style="normal" font-weight="normal" text-decoration="undefined" x="328" y="213.5" text-anchor="middle" dominant-baseline="central" transform="matrix(1 0 0 1 -6 2)">[Container: Java ]</text></g></g><g><g><path fill="none" stroke="none"/><text fill="#000000" stroke="none" font-family="Arial" font-size="13px" font-style="normal" font-weight="normal" text-decoration="undefined" x="328" y="243" text-anchor="middle" dominant-baseline="central" transform="matrix(1 0 0 1 -6 2)">Daily harvest of books</text><text fill="#000000" stroke="none" font-family="Arial" font-size="13px" font-style="normal" font-weight="normal" text-decoration="undefined" x="328" y="256" text-anchor="middle" dominant-baseline="central" transform="matrix(1 0 0 1 -6 2)">and chapters from</text><text fill="#000000" stroke="none" font-family="Arial" font-size="13px" font-style="normal" font-weight="normal" text-decoration="undefined" x="328" y="269" text-anchor="middle" dominant-baseline="central" transform="matrix(1 0 0 1 -6 2)">OAPEN OAI provider</text></g></g><g><path fill="#C0C0C0" stroke="none" paint-order="stroke fill markers" d=" M 481 197 C 481 185.954304 511.4446336 177 549 177 C 586.5553664 177 617 185.954304 617 197 L 617 317 C 617 328.045696 586.5553664 337 549 337 C 511.4446336 337 481 328.045696 481 317 L 481 197 Z" fill-opacity="0.2"/></g><g><path fill="#D8FFEB" stroke="#000000" paint-order="fill stroke markers" d=" M 474 190 C 474 178.954304 504.4446336 170 542 170 C 579.5553664 170 610 178.954304 610 190 L 610 310 C 610 321.045696 579.5553664 330 542 330 C 504.4446336 330 474 321.045696 474 310 L 474 190 Z" stroke-miterlimit="10" stroke-dasharray=""/></g><g><path fill="none" stroke="#000000" paint-order="fill stroke markers" d=" M 474 190 C 474 201.045696 504.4446336 210 542 210 C 579.5553664 210 610 201.045696 610 190" stroke-miterlimit="10" stroke-dasharray=""/></g><g><g><path fill="none" stroke="none"/><text fill="#000000" stroke="none" font-family="Arial" font-size="13px" font-style="normal" font-weight="bold" text-decoration="undefined" x="548" y="222.5" text-anchor="middle" dominant-baseline="central" transform="matrix(1 0 0 1 -6 2)">OAPEN Library DB</text></g></g><g><g><path fill="none" stroke="none"/><text fill="#000000" stroke="none" font-family="Arial" font-size="13px" font-style="normal" font-weight="normal" text-decoration="undefined" x="548" y="237.5" text-anchor="middle" dominant-baseline="central" transform="matrix(1 0 0 1 -6 2)">[Container: MySQL]</text></g></g><g><g><path fill="none" stroke="none"/><text fill="#000000" stroke="none" font-family="Arial" font-size="13px" font-style="normal" font-weight="normal" text-decoration="undefined" x="548" y="260.5" text-anchor="middle" dominant-baseline="central" transform="matrix(1 0 0 1 -6 2)">Stores titles and</text><text fill="#000000" stroke="none" font-family="Arial" font-size="13px" font-style="normal" font-weight="normal" text-decoration="undefined" x="548" y="273.5" text-anchor="middle" dominant-baseline="central" transform="matrix(1 0 0 1 -6 2)">related data</text><text fill="#000000" stroke="none" font-family="Arial" font-size="13px" font-style="normal" font-weight="normal" text-decoration="undefined" x="548" y="286.5" text-anchor="middle" dominant-baseline="central" transform="matrix(1 0 0 1 -6 2)">(funders, publishers,</text><text fill="#000000" stroke="none" font-family="Arial" font-size="13px" font-style="normal" font-weight="normal" text-decoration="undefined" x="548" y="299.5" text-anchor="middle" dominant-baseline="central" transform="matrix(1 0 0 1 -6 2)">etc)</text></g></g><g><path fill="#C0C0C0" stroke="none" paint-order="stroke fill markers" d=" M 481 467 C 481 457.0588736 511.4446336 449 549 449 C 586.5553664 449 617 457.0588736 617 467 L 617 575 C 617 584.9411264 586.5553664 593 549 593 C 511.4446336 593 481 584.9411264 481 575 L 481 467 Z" fill-opacity="0.2"/></g><g><path fill="#D8FFEB" stroke="#000000" paint-order="fill stroke markers" d=" M 474 460 C 474 450.0588736 504.4446336 442 542 442 C 579.5553664 442 610 450.0588736 610 460 L 610 568 C 610 577.9411264 579.5553664 586 542 586 C 504.4446336 586 474 577.9411264 474 568 L 474 460 Z" stroke-miterlimit="10" stroke-dasharray=""/></g><g><path fill="none" stroke="#000000" paint-order="fill stroke markers" d=" M 474 460 C 474 469.9411264 504.4446336 478 542 478 C 579.5553664 478 610 469.9411264 610 460" stroke-miterlimit="10" stroke-dasharray=""/></g><g><g><path fill="none" stroke="none"/><text fill="#000000" stroke="none" font-family="Arial" font-size="13px" font-style="normal" font-weight="bold" text-decoration="undefined" x="548" y="490.5" text-anchor="middle" dominant-baseline="central" transform="matrix(1 0 0 1 -6 2)">OAPEN Memo DB</text></g></g><g><g><path fill="none" stroke="none"/><text fill="#000000" stroke="none" font-family="Arial" font-size="13px" font-style="normal" font-weight="normal" text-decoration="undefined" x="548" y="505.5" text-anchor="middle" dominant-baseline="central" transform="matrix(1 0 0 1 -6 2)">[Container: MySQL]</text></g></g><g><g><path fill="none" stroke="none"/><text fill="#000000" stroke="none" font-family="Arial" font-size="13px" font-style="normal" font-weight="normal" text-decoration="undefined" x="548" y="528.5" text-anchor="middle" dominant-baseline="central" transform="matrix(1 0 0 1 -6 2)">Stores client related</text><text fill="#000000" stroke="none" font-family="Arial" font-size="13px" font-style="normal" font-weight="normal" text-decoration="undefined" x="548" y="541.5" text-anchor="middle" dominant-baseline="central" transform="matrix(1 0 0 1 -6 2)">tasks</text></g></g><g><path fill="#C0C0C0" stroke="none" paint-order="stroke fill markers" d=" M 263 449 L 387 449 Q 393 449 393 455 L 393 571 Q 393 577 387 577 L 263 577 Q 257 577 257 571 L 257 455 Q 257 449 263 449 Z" fill-opacity="0.2"/></g><g><path fill="#a3e0ff" stroke="none" paint-order="stroke fill markers" d=" M 256 442 L 380 442 Q 386 442 386 448 L 386 564 Q 386 570 380 570 L 256 570 Q 250 570 250 564 L 250 448 Q 250 442 256 442 Z"/></g><g><path fill="none" stroke="#000000" paint-order="fill stroke markers" d=" M 256 442 L 380 442 Q 386 442 386 448 L 386 564 Q 386 570 380 570 L 256 570 Q 250 570 250 564 L 250 448 Q 250 442 256 442 Z" stroke-miterlimit="10" stroke-dasharray=""/></g><g><path fill="none" stroke="#000000" paint-order="fill stroke markers" d=" M 258 453 C 258 450.238576 260.238576 448 263 448 C 265.761424 448 268 450.238576 268 453 C 268 455.761424 265.761424 458 263 458 C 260.238576 458 258 455.761424 258 453 Z" stroke-miterlimit="10" stroke-dasharray=""/></g><g><path fill="none" stroke="#000000" paint-order="fill stroke markers" d=" M 272 453 C 272 450.238576 274.238576 448 277 448 C 279.761424 448 282 450.238576 282 453 C 282 455.761424 279.761424 458 277 458 C 274.238576 458 272 455.761424 272 453 Z" stroke-miterlimit="10" stroke-dasharray=""/></g><g><path fill="none" stroke="#000000" paint-order="fill stroke markers" d=" M 291 448 L 373 448 Q 378 448 378 453 L 378 453 Q 378 458 373 458 L 291 458 Q 286 458 286 453 L 286 453 Q 286 448 291 448 Z" stroke-miterlimit="10" stroke-dasharray=""/></g><g><path fill="none" stroke="#000000" paint-order="fill stroke markers" d=" M 250 466 L 386 466" stroke-miterlimit="10" stroke-dasharray=""/></g><g><g><path fill="none" stroke="none"/><text fill="#000000" stroke="none" font-family="Arial" font-size="13px" font-style="normal" font-weight="bold" text-decoration="undefined" x="324" y="476.5" text-anchor="middle" dominant-baseline="central" transform="matrix(1 0 0 1 -6 2)">Task Editor Web</text><text fill="#000000" stroke="none" font-family="Arial" font-size="13px" font-style="normal" font-weight="bold" text-decoration="undefined" x="324" y="489.5" text-anchor="middle" dominant-baseline="central" transform="matrix(1 0 0 1 -6 2)">Application</text></g></g><g><g><path fill="none" stroke="none"/><text fill="#000000" stroke="none" font-family="Arial" font-size="13px" font-style="normal" font-weight="normal" text-decoration="undefined" x="324" y="504.5" text-anchor="middle" dominant-baseline="central" transform="matrix(1 0 0 1 -6 2)">[Container: Java]</text></g></g><g><g><path fill="none" stroke="none"/><text fill="#000000" stroke="none" font-family="Arial" font-size="13px" font-style="normal" font-weight="normal" text-decoration="undefined" x="324" y="527.5" text-anchor="middle" dominant-baseline="central" transform="matrix(1 0 0 1 -6 2)">Per client: define</text><text fill="#000000" stroke="none" font-family="Arial" font-size="13px" font-style="normal" font-weight="normal" text-decoration="undefined" x="324" y="540.5" text-anchor="middle" dominant-baseline="central" transform="matrix(1 0 0 1 -6 2)">tasks (queries +</text><text fill="#000000" stroke="none" font-family="Arial" font-size="13px" font-style="normal" font-weight="normal" text-decoration="undefined" x="324" y="553.5" text-anchor="middle" dominant-baseline="central" transform="matrix(1 0 0 1 -6 2)">export scripts)</text></g></g><g><path fill="#C0C0C0" stroke="none" paint-order="stroke fill markers" d=" M 74.614990234375 442 C 74.614990234375 432.6111584 82.226148634375 425 91.614990234375 425 C 101.003831834375 425 108.614990234375 432.6111584 108.614990234375 442 C 108.614990234375 451.3888416 101.003831834375 459 91.614990234375 459 C 82.226148634375 459 74.614990234375 451.3888416 74.614990234375 442 Z" fill-opacity="0.2"/></g><g><path fill="#C0C0C0" stroke="none" paint-order="stroke fill markers" d=" M 47 467 L 136.22998046875 467 Q 142.22998046875 467 142.22998046875 473 L 142.22998046875 528 Q 142.22998046875 534 136.22998046875 534 L 47 534 Q 41 534 41 528 L 41 473 Q 41 467 47 467 Z" fill-opacity="0.2"/></g><g><path fill="#FFFFD8" stroke="none" paint-order="stroke fill markers" d=" M 67.614990234375 435 C 67.614990234375 425.6111584 75.226148634375 418 84.614990234375 418 C 94.003831834375 418 101.614990234375 425.6111584 101.614990234375 435 C 101.614990234375 444.3888416 94.003831834375 452 84.614990234375 452 C 75.226148634375 452 67.614990234375 444.3888416 67.614990234375 435 Z"/></g><g><path fill="none" stroke="#000000" paint-order="fill stroke markers" d=" M 67.614990234375 435 C 67.614990234375 425.6111584 75.226148634375 418 84.614990234375 418 C 94.003831834375 418 101.614990234375 425.6111584 101.614990234375 435 C 101.614990234375 444.3888416 94.003831834375 452 84.614990234375 452 C 75.226148634375 452 67.614990234375 444.3888416 67.614990234375 435 Z" stroke-miterlimit="10" stroke-dasharray=""/></g><g><path fill="#FFFFD8" stroke="none" paint-order="stroke fill markers" d=" M 40 460 L 129.22998046875 460 Q 135.22998046875 460 135.22998046875 466 L 135.22998046875 521 Q 135.22998046875 527 129.22998046875 527 L 40 527 Q 34 527 34 521 L 34 466 Q 34 460 40 460 Z"/></g><g><path fill="none" stroke="#000000" paint-order="fill stroke markers" d=" M 40 460 L 129.22998046875 460 Q 135.22998046875 460 135.22998046875 466 L 135.22998046875 521 Q 135.22998046875 527 129.22998046875 527 L 40 527 Q 34 527 34 521 L 34 466 Q 34 460 40 460 Z" stroke-miterlimit="10" stroke-dasharray=""/></g><g><g><path fill="none" stroke="none"/><text fill="#000000" stroke="none" font-family="Arial" font-size="13px" font-style="normal" font-weight="bold" text-decoration="undefined" x="90.614990234375" y="472.5" text-anchor="middle" dominant-baseline="central" transform="matrix(1 0 0 1 -6 2)">Memo</text><text fill="#000000" stroke="none" font-family="Arial" font-size="13px" font-style="normal" font-weight="bold" text-decoration="undefined" x="90.614990234375" y="485.5" text-anchor="middle" dominant-baseline="central" transform="matrix(1 0 0 1 -6 2)">Administrator</text></g></g><g><g><path fill="none" stroke="none"/><text fill="#000000" stroke="none" font-family="Arial" font-size="13px" font-style="normal" font-weight="normal" text-decoration="undefined" x="90.614990234375" y="500.5" text-anchor="middle" dominant-baseline="central" transform="matrix(1 0 0 1 -6 2)">[Person]</text></g></g><g><g><path fill="none" stroke="none"/></g></g><g><path fill="#C0C0C0" stroke="none" paint-order="stroke fill markers" d=" M 937 316 C 937 305.5065888 965.6537728 297 1001 297 C 1036.3462272 297 1065 305.5065888 1065 316 L 1065 435 C 1065 445.4934112 1036.3462272 454 1001 454 C 965.6537728 454 937 445.4934112 937 435 L 937 316 Z" fill-opacity="0.2"/></g><g><path fill="#D8FFEB" stroke="#000000" paint-order="fill stroke markers" d=" M 930 309 C 930 298.5065888 958.6537728 290 994 290 C 1029.3462272 290 1058 298.5065888 1058 309 L 1058 428 C 1058 438.4934112 1029.3462272 447 994 447 C 958.6537728 447 930 438.4934112 930 428 L 930 309 Z" stroke-miterlimit="10" stroke-dasharray=""/></g><g><path fill="none" stroke="#000000" paint-order="fill stroke markers" d=" M 930 309 C 930 319.4934112 958.6537728 328 994 328 C 1029.3462272 328 1058 319.4934112 1058 309" stroke-miterlimit="10" stroke-dasharray=""/></g><g><g><path fill="none" stroke="none"/><text fill="#000000" stroke="none" font-family="Arial" font-size="13px" font-style="normal" font-weight="bold" text-decoration="undefined" x="1000" y="340.5" text-anchor="middle" dominant-baseline="central" transform="matrix(1 0 0 1 -6 2)">Generated</text><text fill="#000000" stroke="none" font-family="Arial" font-size="13px" font-style="normal" font-weight="bold" text-decoration="undefined" x="1000" y="353.5" text-anchor="middle" dominant-baseline="central" transform="matrix(1 0 0 1 -6 2)">Exports</text></g></g><g><g><path fill="none" stroke="none"/><text fill="#000000" stroke="none" font-family="Arial" font-size="13px" font-style="normal" font-weight="normal" text-decoration="undefined" x="1000" y="368.5" text-anchor="middle" dominant-baseline="central" transform="matrix(1 0 0 1 -6 2)">[Container: File</text><text fill="#000000" stroke="none" font-family="Arial" font-size="13px" font-style="normal" font-weight="normal" text-decoration="undefined" x="1000" y="381.5" text-anchor="middle" dominant-baseline="central" transform="matrix(1 0 0 1 -6 2)">System]</text></g></g><g><g><path fill="none" stroke="none"/><text fill="#000000" stroke="none" font-family="Arial" font-size="13px" font-style="normal" font-weight="normal" text-decoration="undefined" x="1000" y="404.5" text-anchor="middle" dominant-baseline="central" transform="matrix(1 0 0 1 -6 2)">Stores export files,</text><text fill="#000000" stroke="none" font-family="Arial" font-size="13px" font-style="normal" font-weight="normal" text-decoration="undefined" x="1000" y="417.5" text-anchor="middle" dominant-baseline="central" transform="matrix(1 0 0 1 -6 2)">resulting from</text><text fill="#000000" stroke="none" font-family="Arial" font-size="13px" font-style="normal" font-weight="normal" text-decoration="undefined" x="1000" y="430.5" text-anchor="middle" dominant-baseline="central" transform="matrix(1 0 0 1 -6 2)">tasks run</text></g></g><g><path fill="none" stroke="#000000" paint-order="fill stroke markers" d=" M 394 217 L 474 217" stroke-miterlimit="10" stroke-dasharray="3"/></g><g><path fill="#000000" stroke="none" paint-order="stroke fill markers" d=" M 463.83732514237585 221.209517756016 L 474 217 L 463.83732514237585 212.790482243984"/></g><g><path fill="none" stroke="#000000" paint-order="fill stroke markers" d=" M 463.83732514237585 221.209517756016 L 474 217 L 463.83732514237585 212.790482243984 L 463.83732514237585 221.209517756016" stroke-miterlimit="10" stroke-dasharray=""/></g><g><rect fill="#ffffff" stroke="none" x="427" y="208" width="27.447265625" height="13" transform="matrix(1 0 0 1 -6 2)"/></g><g><g><path fill="none" stroke="none"/><text fill="#000000" stroke="none" font-family="Arial" font-size="13px" font-style="normal" font-weight="normal" text-decoration="undefined" x="440.7236328125" y="214.5" text-anchor="middle" dominant-baseline="central" transform="matrix(1 0 0 1 -6 2)">write</text></g></g><g><path fill="none" stroke="#000000" paint-order="fill stroke markers" d=" M 736 290 L 736 226 L 736 226 A 8 8 0 0 0 728 218 L 610 218" stroke-miterlimit="10" stroke-dasharray="3"/></g><g><path fill="#000000" stroke="none" paint-order="stroke fill markers" d=" M 620.1626748576241 213.790482243984 L 610 218 L 620.1626748576241 222.209517756016"/></g><g><path fill="none" stroke="#000000" paint-order="fill stroke markers" d=" M 620.1626748576241 213.790482243984 L 610 218 L 620.1626748576241 222.209517756016 L 620.1626748576241 213.790482243984" stroke-miterlimit="10" stroke-dasharray=""/></g><g><rect fill="#ffffff" stroke="none" x="686" y="207" width="26.01904296875" height="13" transform="matrix(1 0 0 1 -6 2)"/></g><g><g><path fill="none" stroke="none"/><text fill="#000000" stroke="none" font-family="Arial" font-size="13px" font-style="normal" font-weight="normal" text-decoration="undefined" x="699.009521484375" y="213.5" text-anchor="middle" dominant-baseline="central" transform="matrix(1 0 0 1 -6 2)">read</text></g></g><g><path fill="none" stroke="#000000" paint-order="fill stroke markers" d=" M 736 435 L 736 482 L 736 482 A 8 8 0 0 1 728 490 L 610 490" stroke-miterlimit="10" stroke-dasharray="3"/></g><g><path fill="#000000" stroke="none" paint-order="stroke fill markers" d=" M 620.1626748576241 485.790482243984 L 610 490 L 620.1626748576241 494.209517756016"/></g><g><path fill="none" stroke="#000000" paint-order="fill stroke markers" d=" M 620.1626748576241 485.790482243984 L 610 490 L 620.1626748576241 494.209517756016 L 620.1626748576241 485.790482243984" stroke-miterlimit="10" stroke-dasharray=""/></g><g><rect fill="#ffffff" stroke="none" x="686" y="479" width="26.01904296875" height="13" transform="matrix(1 0 0 1 -6 2)"/></g><g><g><path fill="none" stroke="none"/><text fill="#000000" stroke="none" font-family="Arial" font-size="13px" font-style="normal" font-weight="normal" text-decoration="undefined" x="699.009521484375" y="485.5" text-anchor="middle" dominant-baseline="central" transform="matrix(1 0 0 1 -6 2)">read</text></g></g><g><path fill="none" stroke="#000000" paint-order="fill stroke markers" d=" M 831 362 L 930 362" stroke-miterlimit="10" stroke-dasharray="3"/></g><g><path fill="#000000" stroke="none" paint-order="stroke fill markers" d=" M 919.8373251423759 366.209517756016 L 930 362 L 919.8373251423758 357.790482243984"/></g><g><path fill="none" stroke="#000000" paint-order="fill stroke markers" d=" M 919.8373251423759 366.209517756016 L 930 362 L 919.8373251423758 357.790482243984 L 919.8373251423759 366.209517756016" stroke-miterlimit="10" stroke-dasharray=""/></g><g><rect fill="#ffffff" stroke="none" x="872" y="351" width="27.447265625" height="13" transform="matrix(1 0 0 1 -6 2)"/></g><g><g><path fill="none" stroke="none"/><text fill="#000000" stroke="none" font-family="Arial" font-size="13px" font-style="normal" font-weight="normal" text-decoration="undefined" x="885.7236328125" y="357.5" text-anchor="middle" dominant-baseline="central" transform="matrix(1 0 0 1 -6 2)">write</text></g></g><g><path fill="none" stroke="#000000" paint-order="fill stroke markers" d=" M 386 486 L 474 486" stroke-miterlimit="10" stroke-dasharray="3"/></g><g><path fill="#000000" stroke="none" paint-order="stroke fill markers" d=" M 463.83732514237585 490.209517756016 L 474 486 L 463.83732514237585 481.790482243984"/></g><g><path fill="none" stroke="#000000" paint-order="fill stroke markers" d=" M 463.83732514237585 490.209517756016 L 474 486 L 463.83732514237585 481.790482243984 L 463.83732514237585 490.209517756016" stroke-miterlimit="10" stroke-dasharray=""/></g><g><rect fill="#ffffff" stroke="none" x="424" y="479" width="27.447265625" height="13" transform="matrix(1 0 0 1 -6 2)"/></g><g><g><path fill="none" stroke="none"/><text fill="#000000" stroke="none" font-family="Arial" font-size="13px" font-style="normal" font-weight="normal" text-decoration="undefined" x="437.7236328125" y="485.5" text-anchor="middle" dominant-baseline="central" transform="matrix(1 0 0 1 -6 2)">write</text></g></g><g><path fill="none" stroke="#000000" paint-order="fill stroke markers" d=" M 135 490 L 250 490" stroke-miterlimit="10" stroke-dasharray="3"/></g><g><path fill="#000000" stroke="none" paint-order="stroke fill markers" d=" M 239.83732514237585 494.209517756016 L 250 490 L 239.83732514237585 485.790482243984"/></g><g><path fill="none" stroke="#000000" paint-order="fill stroke markers" d=" M 239.83732514237585 494.209517756016 L 250 490 L 239.83732514237585 485.790482243984 L 239.83732514237585 494.209517756016" stroke-miterlimit="10" stroke-dasharray=""/></g><g><path fill="#C0C0C0" stroke="none" paint-order="stroke fill markers" d=" M 935 585 L 1059 585 Q 1065 585 1065 591 L 1065 707 Q 1065 713 1059 713 L 935 713 Q 929 713 929 707 L 929 591 Q 929 585 935 585 Z" fill-opacity="0.2"/></g><g><path fill="#a3e0ff" stroke="none" paint-order="stroke fill markers" d=" M 928 578 L 1052 578 Q 1058 578 1058 584 L 1058 700 Q 1058 706 1052 706 L 928 706 Q 922 706 922 700 L 922 584 Q 922 578 928 578 Z"/></g><g><path fill="none" stroke="#000000" paint-order="fill stroke markers" d=" M 928 578 L 1052 578 Q 1058 578 1058 584 L 1058 700 Q 1058 706 1052 706 L 928 706 Q 922 706 922 700 L 922 584 Q 922 578 928 578 Z" stroke-miterlimit="10" stroke-dasharray=""/></g><g><path fill="none" stroke="#000000" paint-order="fill stroke markers" d=" M 930 589 C 930 586.238576 932.238576 584 935 584 C 937.761424 584 940 586.238576 940 589 C 940 591.761424 937.761424 594 935 594 C 932.238576 594 930 591.761424 930 589 Z" stroke-miterlimit="10" stroke-dasharray=""/></g><g><path fill="none" stroke="#000000" paint-order="fill stroke markers" d=" M 944 589 C 944 586.238576 946.238576 584 949 584 C 951.761424 584 954 586.238576 954 589 C 954 591.761424 951.761424 594 949 594 C 946.238576 594 944 591.761424 944 589 Z" stroke-miterlimit="10" stroke-dasharray=""/></g><g><path fill="none" stroke="#000000" paint-order="fill stroke markers" d=" M 963 584 L 1045 584 Q 1050 584 1050 589 L 1050 589 Q 1050 594 1045 594 L 963 594 Q 958 594 958 589 L 958 589 Q 958 584 963 584 Z" stroke-miterlimit="10" stroke-dasharray=""/></g><g><path fill="none" stroke="#000000" paint-order="fill stroke markers" d=" M 922 602 L 1058 602" stroke-miterlimit="10" stroke-dasharray=""/></g><g><g><path fill="none" stroke="none"/><text fill="#000000" stroke="none" font-family="Arial" font-size="13px" font-style="normal" font-weight="bold" text-decoration="undefined" x="996" y="612.5" text-anchor="middle" dominant-baseline="central" transform="matrix(1 0 0 1 -6 2)">Memo Clients</text><text fill="#000000" stroke="none" font-family="Arial" font-size="13px" font-style="normal" font-weight="bold" text-decoration="undefined" x="996" y="625.5" text-anchor="middle" dominant-baseline="central" transform="matrix(1 0 0 1 -6 2)">Website</text></g></g><g><g><path fill="none" stroke="none"/><text fill="#000000" stroke="none" font-family="Arial" font-size="13px" font-style="normal" font-weight="normal" text-decoration="undefined" x="996" y="640.5" text-anchor="middle" dominant-baseline="central" transform="matrix(1 0 0 1 -6 2)">[Container: Java]</text></g></g><g><g><path fill="none" stroke="none"/><text fill="#000000" stroke="none" font-family="Arial" font-size="13px" font-style="normal" font-weight="normal" text-decoration="undefined" x="996" y="663.5" text-anchor="middle" dominant-baseline="central" transform="matrix(1 0 0 1 -6 2)">Per client: show</text><text fill="#000000" stroke="none" font-family="Arial" font-size="13px" font-style="normal" font-weight="normal" text-decoration="undefined" x="996" y="676.5" text-anchor="middle" dominant-baseline="central" transform="matrix(1 0 0 1 -6 2)">tasks &amp; most recent</text><text fill="#000000" stroke="none" font-family="Arial" font-size="13px" font-style="normal" font-weight="normal" text-decoration="undefined" x="996" y="689.5" text-anchor="middle" dominant-baseline="central" transform="matrix(1 0 0 1 -6 2)">resulting exports</text></g></g><g><path fill="none" stroke="#000000" paint-order="fill stroke markers" d=" M 922 658 L 546 658 L 546 658 A 8 8 0 0 1 538 650 L 538 586" stroke-miterlimit="10" stroke-dasharray="3"/></g><g><path fill="#000000" stroke="none" paint-order="stroke fill markers" d=" M 542.209517756016 596.1626748576241 L 538 586 L 533.790482243984 596.1626748576241"/></g><g><path fill="none" stroke="#000000" paint-order="fill stroke markers" d=" M 542.209517756016 596.1626748576241 L 538 586 L 533.790482243984 596.1626748576241 L 542.209517756016 596.1626748576241" stroke-miterlimit="10" stroke-dasharray=""/></g><g><rect fill="#ffffff" stroke="none" x="528" y="615" width="26.01904296875" height="13" transform="matrix(1 0 0 1 -6 2)"/></g><g><g><path fill="none" stroke="none"/><text fill="#000000" stroke="none" font-family="Arial" font-size="13px" font-style="normal" font-weight="normal" text-decoration="undefined" x="541.009521484375" y="621.5" text-anchor="middle" dominant-baseline="central" transform="matrix(1 0 0 1 -6 2)">read</text></g></g><g><path fill="none" stroke="#000000" paint-order="fill stroke markers" d=" M 994 578 L 994 447" stroke-miterlimit="10" stroke-dasharray="3"/></g><g><path fill="#000000" stroke="none" paint-order="stroke fill markers" d=" M 998.209517756016 457.16267485762415 L 994 447 L 989.790482243984 457.16267485762415"/></g><g><path fill="none" stroke="#000000" paint-order="fill stroke markers" d=" M 998.209517756016 457.16267485762415 L 994 447 L 989.790482243984 457.16267485762415 L 998.209517756016 457.16267485762415" stroke-miterlimit="10" stroke-dasharray=""/></g><g><rect fill="#ffffff" stroke="none" x="984" y="463" width="26.01904296875" height="13" transform="matrix(1 0 0 1 -6 2)"/></g><g><g><path fill="none" stroke="none"/><text fill="#000000" stroke="none" font-family="Arial" font-size="13px" font-style="normal" font-weight="normal" text-decoration="undefined" x="997.009521484375" y="469.5" text-anchor="middle" dominant-baseline="central" transform="matrix(1 0 0 1 -6 2)">read</text></g></g><g><path fill="#C0C0C0" stroke="none" paint-order="stroke fill markers" d=" M 1294.706787109375 599.5 C 1294.706787109375 593.7010096 1299.407796709375 589 1305.206787109375 589 C 1311.005777509375 589 1315.706787109375 593.7010096 1315.706787109375 599.5 C 1315.706787109375 605.2989904 1311.005777509375 610 1305.206787109375 610 C 1299.407796709375 610 1294.706787109375 605.2989904 1294.706787109375 599.5 Z" fill-opacity="0.2"/></g><g><path fill="#C0C0C0" stroke="none" paint-order="stroke fill markers" d=" M 1279 618 L 1331.41357421875 618 Q 1337.41357421875 618 1337.41357421875 624 L 1337.41357421875 666 Q 1337.41357421875 672 1331.41357421875 672 L 1279 672 Q 1273 672 1273 666 L 1273 624 Q 1273 618 1279 618 Z" fill-opacity="0.2"/></g><g><path fill="#FFFFD8" stroke="none" paint-order="stroke fill markers" d=" M 1287.706787109375 592.5 C 1287.706787109375 586.7010096 1292.407796709375 582 1298.206787109375 582 C 1304.005777509375 582 1308.706787109375 586.7010096 1308.706787109375 592.5 C 1308.706787109375 598.2989904 1304.005777509375 603 1298.206787109375 603 C 1292.407796709375 603 1287.706787109375 598.2989904 1287.706787109375 592.5 Z"/></g><g><path fill="none" stroke="#000000" paint-order="fill stroke markers" d=" M 1287.706787109375 592.5 C 1287.706787109375 586.7010096 1292.407796709375 582 1298.206787109375 582 C 1304.005777509375 582 1308.706787109375 586.7010096 1308.706787109375 592.5 C 1308.706787109375 598.2989904 1304.005777509375 603 1298.206787109375 603 C 1292.407796709375 603 1287.706787109375 598.2989904 1287.706787109375 592.5 Z" stroke-miterlimit="10" stroke-dasharray=""/></g><g><path fill="#FFFFD8" stroke="none" paint-order="stroke fill markers" d=" M 1272 611 L 1324.41357421875 611 Q 1330.41357421875 611 1330.41357421875 617 L 1330.41357421875 659 Q 1330.41357421875 665 1324.41357421875 665 L 1272 665 Q 1266 665 1266 659 L 1266 617 Q 1266 611 1272 611 Z"/></g><g><path fill="none" stroke="#000000" paint-order="fill stroke markers" d=" M 1272 611 L 1324.41357421875 611 Q 1330.41357421875 611 1330.41357421875 617 L 1330.41357421875 659 Q 1330.41357421875 665 1324.41357421875 665 L 1272 665 Q 1266 665 1266 659 L 1266 617 Q 1266 611 1272 611 Z" stroke-miterlimit="10" stroke-dasharray=""/></g><g><g><path fill="none" stroke="none"/><text fill="#000000" stroke="none" font-family="Arial" font-size="13px" font-style="normal" font-weight="bold" text-decoration="undefined" x="1304.206787109375" y="623.5" text-anchor="middle" dominant-baseline="central" transform="matrix(1 0 0 1 -6 2)">Client</text></g></g><g><g><path fill="none" stroke="none"/><text fill="#000000" stroke="none" font-family="Arial" font-size="13px" font-style="normal" font-weight="normal" text-decoration="undefined" x="1304.206787109375" y="638.5" text-anchor="middle" dominant-baseline="central" transform="matrix(1 0 0 1 -6 2)">[Person]</text></g></g><g><g><path fill="none" stroke="none"/></g></g><g><path fill="#C0C0C0" stroke="none" paint-order="stroke fill markers" d=" M 1254.706787109375 707.5 C 1254.706787109375 701.7010096 1259.407796709375 697 1265.206787109375 697 C 1271.005777509375 697 1275.706787109375 701.7010096 1275.706787109375 707.5 C 1275.706787109375 713.2989904 1271.005777509375 718 1265.206787109375 718 C 1259.407796709375 718 1254.706787109375 713.2989904 1254.706787109375 707.5 Z" fill-opacity="0.2"/></g><g><path fill="#C0C0C0" stroke="none" paint-order="stroke fill markers" d=" M 1239 726 L 1291.41357421875 726 Q 1297.41357421875 726 1297.41357421875 732 L 1297.41357421875 774 Q 1297.41357421875 780 1291.41357421875 780 L 1239 780 Q 1233 780 1233 774 L 1233 732 Q 1233 726 1239 726 Z" fill-opacity="0.2"/></g><g><path fill="#FFFFD8" stroke="none" paint-order="stroke fill markers" d=" M 1247.706787109375 700.5 C 1247.706787109375 694.7010096 1252.407796709375 690 1258.206787109375 690 C 1264.005777509375 690 1268.706787109375 694.7010096 1268.706787109375 700.5 C 1268.706787109375 706.2989904 1264.005777509375 711 1258.206787109375 711 C 1252.407796709375 711 1247.706787109375 706.2989904 1247.706787109375 700.5 Z"/></g><g><path fill="none" stroke="#000000" paint-order="fill stroke markers" d=" M 1247.706787109375 700.5 C 1247.706787109375 694.7010096 1252.407796709375 690 1258.206787109375 690 C 1264.005777509375 690 1268.706787109375 694.7010096 1268.706787109375 700.5 C 1268.706787109375 706.2989904 1264.005777509375 711 1258.206787109375 711 C 1252.407796709375 711 1247.706787109375 706.2989904 1247.706787109375 700.5 Z" stroke-miterlimit="10" stroke-dasharray=""/></g><g><path fill="#FFFFD8" stroke="none" paint-order="stroke fill markers" d=" M 1232 719 L 1284.41357421875 719 Q 1290.41357421875 719 1290.41357421875 725 L 1290.41357421875 767 Q 1290.41357421875 773 1284.41357421875 773 L 1232 773 Q 1226 773 1226 767 L 1226 725 Q 1226 719 1232 719 Z"/></g><g><path fill="none" stroke="#000000" paint-order="fill stroke markers" d=" M 1232 719 L 1284.41357421875 719 Q 1290.41357421875 719 1290.41357421875 725 L 1290.41357421875 767 Q 1290.41357421875 773 1284.41357421875 773 L 1232 773 Q 1226 773 1226 767 L 1226 725 Q 1226 719 1232 719 Z" stroke-miterlimit="10" stroke-dasharray=""/></g><g><g><path fill="none" stroke="none"/><text fill="#000000" stroke="none" font-family="Arial" font-size="13px" font-style="normal" font-weight="bold" text-decoration="undefined" x="1264.206787109375" y="731.5" text-anchor="middle" dominant-baseline="central" transform="matrix(1 0 0 1 -6 2)">Client</text></g></g><g><g><path fill="none" stroke="none"/><text fill="#000000" stroke="none" font-family="Arial" font-size="13px" font-style="normal" font-weight="normal" text-decoration="undefined" x="1264.206787109375" y="746.5" text-anchor="middle" dominant-baseline="central" transform="matrix(1 0 0 1 -6 2)">[Person]</text></g></g><g><g><path fill="none" stroke="none"/></g></g><g><path fill="#C0C0C0" stroke="none" paint-order="stroke fill markers" d=" M 1254.706787109375 491.5 C 1254.706787109375 485.7010096 1259.407796709375 481 1265.206787109375 481 C 1271.005777509375 481 1275.706787109375 485.7010096 1275.706787109375 491.5 C 1275.706787109375 497.2989904 1271.005777509375 502 1265.206787109375 502 C 1259.407796709375 502 1254.706787109375 497.2989904 1254.706787109375 491.5 Z" fill-opacity="0.2"/></g><g><path fill="#C0C0C0" stroke="none" paint-order="stroke fill markers" d=" M 1239 510 L 1291.41357421875 510 Q 1297.41357421875 510 1297.41357421875 516 L 1297.41357421875 558 Q 1297.41357421875 564 1291.41357421875 564 L 1239 564 Q 1233 564 1233 558 L 1233 516 Q 1233 510 1239 510 Z" fill-opacity="0.2"/></g><g><path fill="#FFFFD8" stroke="none" paint-order="stroke fill markers" d=" M 1247.706787109375 484.5 C 1247.706787109375 478.7010096 1252.407796709375 474 1258.206787109375 474 C 1264.005777509375 474 1268.706787109375 478.7010096 1268.706787109375 484.5 C 1268.706787109375 490.2989904 1264.005777509375 495 1258.206787109375 495 C 1252.407796709375 495 1247.706787109375 490.2989904 1247.706787109375 484.5 Z"/></g><g><path fill="none" stroke="#000000" paint-order="fill stroke markers" d=" M 1247.706787109375 484.5 C 1247.706787109375 478.7010096 1252.407796709375 474 1258.206787109375 474 C 1264.005777509375 474 1268.706787109375 478.7010096 1268.706787109375 484.5 C 1268.706787109375 490.2989904 1264.005777509375 495 1258.206787109375 495 C 1252.407796709375 495 1247.706787109375 490.2989904 1247.706787109375 484.5 Z" stroke-miterlimit="10" stroke-dasharray=""/></g><g><path fill="#FFFFD8" stroke="none" paint-order="stroke fill markers" d=" M 1232 503 L 1284.41357421875 503 Q 1290.41357421875 503 1290.41357421875 509 L 1290.41357421875 551 Q 1290.41357421875 557 1284.41357421875 557 L 1232 557 Q 1226 557 1226 551 L 1226 509 Q 1226 503 1232 503 Z"/></g><g><path fill="none" stroke="#000000" paint-order="fill stroke markers" d=" M 1232 503 L 1284.41357421875 503 Q 1290.41357421875 503 1290.41357421875 509 L 1290.41357421875 551 Q 1290.41357421875 557 1284.41357421875 557 L 1232 557 Q 1226 557 1226 551 L 1226 509 Q 1226 503 1232 503 Z" stroke-miterlimit="10" stroke-dasharray=""/></g><g><g><path fill="none" stroke="none"/><text fill="#000000" stroke="none" font-family="Arial" font-size="13px" font-style="normal" font-weight="bold" text-decoration="undefined" x="1264.206787109375" y="515.5" text-anchor="middle" dominant-baseline="central" transform="matrix(1 0 0 1 -6 2)">Client</text></g></g><g><g><path fill="none" stroke="none"/><text fill="#000000" stroke="none" font-family="Arial" font-size="13px" font-style="normal" font-weight="normal" text-decoration="undefined" x="1264.206787109375" y="530.5" text-anchor="middle" dominant-baseline="central" transform="matrix(1 0 0 1 -6 2)">[Person]</text></g></g><g><g><path fill="none" stroke="none"/></g></g><g><path fill="none" stroke="#000000" paint-order="fill stroke markers" d=" M 1225 531 L 1059 609" stroke-miterlimit="10" stroke-dasharray="3"/></g><g><path fill="#000000" stroke="none" paint-order="stroke fill markers" d=" M 1066.407698890199 600.8682107041473 L 1059 609 L 1069.9880774725254 608.4879907639702"/></g><g><path fill="none" stroke="#000000" paint-order="fill stroke markers" d=" M 1066.407698890199 600.8682107041473 L 1059 609 L 1069.9880774725254 608.4879907639702 L 1066.407698890199 600.8682107041473" stroke-miterlimit="10" stroke-dasharray=""/></g><g><path fill="none" stroke="#000000" paint-order="fill stroke markers" d=" M 1225 720 L 1059 665" stroke-miterlimit="10" stroke-dasharray="3"/></g><g><path fill="#000000" stroke="none" paint-order="stroke fill markers" d=" M 1069.9708982704458 664.2003806283436 L 1059 665 L 1067.3230128428063 672.1921802826737"/></g><g><path fill="none" stroke="#000000" paint-order="fill stroke markers" d=" M 1069.9708982704458 664.2003806283436 L 1059 665 L 1067.3230128428063 672.1921802826737 L 1069.9708982704458 664.2003806283436" stroke-miterlimit="10" stroke-dasharray=""/></g><g><path fill="none" stroke="#000000" paint-order="fill stroke markers" d=" M 1266 634 L 1058 634" stroke-miterlimit="10" stroke-dasharray="3"/></g><g><path fill="#000000" stroke="none" paint-order="stroke fill markers" d=" M 1068.162674857624 629.790482243984 L 1058 634 L 1068.162674857624 638.209517756016"/></g><g><path fill="none" stroke="#000000" paint-order="fill stroke markers" d=" M 1068.162674857624 629.790482243984 L 1058 634 L 1068.162674857624 638.209517756016 L 1068.162674857624 629.790482243984" stroke-miterlimit="10" stroke-dasharray=""/></g><g><rect fill="#ffffff" stroke="none" x="16" y="8" width="648" height="55" transform="matrix(1 0 0 1 -6 2)"/></g><g><path fill="none" stroke="#000000" paint-order="fill stroke markers" d=" M 10 10 L 658 10 L 658 65 L 10 65 L 10 10 Z Z" stroke-miterlimit="10" stroke-dasharray=""/></g><g><g><path fill="none" stroke="none"/><text fill="#000000" stroke="none" font-family="Arial" font-size="13px" font-style="normal" font-weight="normal" text-decoration="undefined" x="21" y="13" text-anchor="start" dominant-baseline="text-before-edge" transform="matrix(1 0 0 1 -6 2)">OAPEN MEMO Project</text></g></g><g><g><path fill="none" stroke="none"/><text fill="#000000" stroke="none" font-family="Arial" font-size="13px" font-style="normal" font-weight="normal" text-decoration="undefined" x="21" y="28" text-anchor="start" dominant-baseline="text-before-edge" transform="matrix(1 0 0 1 -6 2)">System Overview Diagram (C4)</text></g></g><g><g><path fill="none" stroke="none"/><text fill="#000000" stroke="none" font-family="Arial" font-size="13px" font-style="normal" font-weight="normal" text-decoration="undefined" x="21" y="43" text-anchor="start" dominant-baseline="text-before-edge" transform="matrix(1 0 0 1 -6 2)">Version 20230925-2</text></g></g><g><path fill="#C0C0C0" stroke="none" paint-order="stroke fill markers" d=" M 719 297 L 831.51904296875 297 Q 837.51904296875 297 837.51904296875 303 L 837.51904296875 436 Q 837.51904296875 442 831.51904296875 442 L 719 442 Q 713 442 713 436 L 713 303 Q 713 297 719 297 Z" fill-opacity="0.2"/></g><g><path fill="#D8D8FF" stroke="none" paint-order="stroke fill markers" d=" M 712 290 L 824.51904296875 290 Q 830.51904296875 290 830.51904296875 296 L 830.51904296875 429 Q 830.51904296875 435 824.51904296875 435 L 712 435 Q 706 435 706 429 L 706 296 Q 706 290 712 290 Z"/></g><g><path fill="none" stroke="#000000" paint-order="fill stroke markers" d=" M 712 290 L 824.51904296875 290 Q 830.51904296875 290 830.51904296875 296 L 830.51904296875 429 Q 830.51904296875 435 824.51904296875 435 L 712 435 Q 706 435 706 429 L 706 296 Q 706 290 712 290 Z" stroke-miterlimit="10" stroke-dasharray=""/></g><g><g><path fill="none" stroke="none"/><text fill="#000000" stroke="none" font-family="Arial" font-size="13px" font-style="normal" font-weight="bold" text-decoration="undefined" x="774.259521484375" y="302.5" text-anchor="middle" dominant-baseline="central" transform="matrix(1 0 0 1 -6 2)">Task Runner</text><text fill="#000000" stroke="none" font-family="Arial" font-size="13px" font-style="normal" font-weight="bold" text-decoration="undefined" x="774.259521484375" y="315.5" text-anchor="middle" dominant-baseline="central" transform="matrix(1 0 0 1 -6 2)">Service</text></g></g><g><g><path fill="none" stroke="none"/><text fill="#000000" stroke="none" font-family="Arial" font-size="13px" font-style="normal" font-weight="normal" text-decoration="undefined" x="774.259521484375" y="330.5" text-anchor="middle" dominant-baseline="central" transform="matrix(1 0 0 1 -6 2)">[Container: Java]</text></g></g><g><g><path fill="none" stroke="none"/><text fill="#000000" stroke="none" font-family="Arial" font-size="13px" font-style="normal" font-weight="normal" text-decoration="undefined" x="774.259521484375" y="353.5" text-anchor="middle" dominant-baseline="central" transform="matrix(1 0 0 1 -6 2)">Daily selection of</text><text fill="#000000" stroke="none" font-family="Arial" font-size="13px" font-style="normal" font-weight="normal" text-decoration="undefined" x="774.259521484375" y="366.5" text-anchor="middle" dominant-baseline="central" transform="matrix(1 0 0 1 -6 2)">tasks that must</text><text fill="#000000" stroke="none" font-family="Arial" font-size="13px" font-style="normal" font-weight="normal" text-decoration="undefined" x="774.259521484375" y="379.5" text-anchor="middle" dominant-baseline="central" transform="matrix(1 0 0 1 -6 2)">run (query titles +</text><text fill="#000000" stroke="none" font-family="Arial" font-size="13px" font-style="normal" font-weight="normal" text-decoration="undefined" x="774.259521484375" y="392.5" text-anchor="middle" dominant-baseline="central" transform="matrix(1 0 0 1 -6 2)">script to format</text><text fill="#000000" stroke="none" font-family="Arial" font-size="13px" font-style="normal" font-weight="normal" text-decoration="undefined" x="774.259521484375" y="405.5" text-anchor="middle" dominant-baseline="central" transform="matrix(1 0 0 1 -6 2)">and save resulting</text><text fill="#000000" stroke="none" font-family="Arial" font-size="13px" font-style="normal" font-weight="normal" text-decoration="undefined" x="774.259521484375" y="418.5" text-anchor="middle" dominant-baseline="central" transform="matrix(1 0 0 1 -6 2)">export)
</text></g></g><g><path fill="#ffffff" stroke="none" paint-order="stroke fill markers" d=" M 250 306 L 320.43896484375 306 L 330.43896484375 316 L 330.43896484375 345 L 250 345 L 250 306"/></g><g><path fill="none" stroke="#000000" paint-order="fill stroke markers" d=" M 250 306 L 320.43896484375 306 L 330.43896484375 316 L 330.43896484375 345 L 250 345 L 250 306 L 250 306" stroke-miterlimit="10" stroke-dasharray=""/></g><g><path fill="none" stroke="#000000" paint-order="fill stroke markers" d=" M 320.43896484375 306 L 320.43896484375 316 L 330.43896484375 316 L 320.43896484375 306" stroke-miterlimit="10" stroke-dasharray=""/></g><g><g><path fill="none" stroke="none"/><text fill="#000000" stroke="none" font-family="Arial" font-size="13px" font-style="normal" font-weight="normal" text-decoration="undefined" x="261" y="309" text-anchor="start" dominant-baseline="text-before-edge" transform="matrix(1 0 0 1 -6 2)">Scheduled</text><text fill="#000000" stroke="none" font-family="Arial" font-size="13px" font-style="normal" font-weight="normal" text-decoration="undefined" x="261" y="322" text-anchor="start" dominant-baseline="text-before-edge" transform="matrix(1 0 0 1 -6 2)">service</text></g></g><g><path fill="none" stroke="#000000" paint-order="fill stroke markers" d=" M 298 305 L 302 293" stroke-miterlimit="10" stroke-dasharray="3"/></g><g><path fill="#ffffff" stroke="none" paint-order="stroke fill markers" d=" M 746 234 L 816.43896484375 234 L 826.43896484375 244 L 826.43896484375 273 L 746 273 L 746 234"/></g><g><path fill="none" stroke="#000000" paint-order="fill stroke markers" d=" M 746 234 L 816.43896484375 234 L 826.43896484375 244 L 826.43896484375 273 L 746 273 L 746 234 L 746 234" stroke-miterlimit="10" stroke-dasharray=""/></g><g><path fill="none" stroke="#000000" paint-order="fill stroke markers" d=" M 816.43896484375 234 L 816.43896484375 244 L 826.43896484375 244 L 816.43896484375 234" stroke-miterlimit="10" stroke-dasharray=""/></g><g><g><path fill="none" stroke="none"/><text fill="#000000" stroke="none" font-family="Arial" font-size="13px" font-style="normal" font-weight="normal" text-decoration="undefined" x="757" y="237" text-anchor="start" dominant-baseline="text-before-edge" transform="matrix(1 0 0 1 -6 2)">Scheduled</text><text fill="#000000" stroke="none" font-family="Arial" font-size="13px" font-style="normal" font-weight="normal" text-decoration="undefined" x="757" y="250" text-anchor="start" dominant-baseline="text-before-edge" transform="matrix(1 0 0 1 -6 2)">service</text></g></g><g><path fill="none" stroke="#000000" paint-order="fill stroke markers" d=" M 783 275 L 780 289" stroke-miterlimit="10" stroke-dasharray="3"/></g><g><rect fill="#D8D8FF" stroke="none" x="1216" y="120" width="50" height="16" transform="matrix(1 0 0 1 -6 2)"/></g><g><path fill="none" stroke="#000000" paint-order="fill stroke markers" d=" M 1210 122 L 1260 122 L 1260 138 L 1210 138 L 1210 122 Z Z" stroke-miterlimit="10" stroke-dasharray=""/></g><g><g><path fill="none" stroke="none"/><text fill="#000000" stroke="none" font-family="Arial" font-size="13px" font-style="normal" font-weight="normal" text-decoration="undefined" x="1282" y="125" text-anchor="start" dominant-baseline="text-before-edge" transform="matrix(1 0 0 1 -6 2)">Daemon</text></g></g><g><g><path fill="none" stroke="none"/><text fill="#000000" stroke="none" font-family="Arial" font-size="13px" font-style="normal" font-weight="normal" text-decoration="undefined" x="1282" y="211" text-anchor="start" dominant-baseline="text-before-edge" transform="matrix(1 0 0 1 -6 2)">Storage</text></g></g><g><rect fill="#D8FFEB" stroke="none" x="1216" y="206" width="50" height="16" transform="matrix(1 0 0 1 -6 2)"/></g><g><path fill="none" stroke="#000000" paint-order="fill stroke markers" d=" M 1210 208 L 1260 208 L 1260 224 L 1210 224 L 1210 208 Z Z" stroke-miterlimit="10" stroke-dasharray=""/></g><g><g><path fill="none" stroke="none"/><text fill="#000000" stroke="none" font-family="Arial" font-size="13px" font-style="normal" font-weight="normal" text-decoration="undefined" x="1282" y="168" text-anchor="start" dominant-baseline="text-before-edge" transform="matrix(1 0 0 1 -6 2)">UI Application</text></g></g><g><rect fill="#A3E0FF" stroke="none" x="1216" y="163" width="50" height="16" transform="matrix(1 0 0 1 -6 2)"/></g><g><path fill="none" stroke="#000000" paint-order="fill stroke markers" d=" M 1210 165 L 1260 165 L 1260 181 L 1210 181 L 1210 165 Z Z" stroke-miterlimit="10" stroke-dasharray=""/></g></g></svg>